<svg width="32" height="33" viewBox="0 0 32 33" fill="none" xmlns="http://www.w3.org/2000/svg">
<path d="M16 5.83337C17.4145 5.83337 18.7711 6.39528 19.7713 7.39547C20.7715 8.39566 21.3334 9.75222 21.3334 11.1667C21.3334 12.5812 20.7715 13.9377 19.7713 14.9379C18.7711 15.9381 17.4145 16.5 16 16.5C14.5856 16.5 13.229 15.9381 12.2288 14.9379C11.2286 13.9377 10.6667 12.5812 10.6667 11.1667C10.6667 9.75222 11.2286 8.39566 12.2288 7.39547C13.229 6.39528 14.5856 5.83337 16 5.83337ZM16 19.1667C21.8934 19.1667 26.6667 21.5534 26.6667 24.5V27.1667H5.33337V24.5C5.33337 21.5534 10.1067 19.1667 16 19.1667Z" fill="#999999"/>
</svg>
