<svg width="577" height="1038" viewBox="0 0 577 1038" fill="none" xmlns="http://www.w3.org/2000/svg">
<g clip-path="url(#clip0_1108_124512)">
<line x1="577" y1="0.5" x2="-1.2814e-08" y2="0.499957" stroke="#E6E6E6"/>
<line x1="577" y1="144.467" x2="-1.99328e-08" y2="144.467" stroke="#E6E6E6"/>
<line x1="577" y1="288.433" x2="-1.99328e-08" y2="288.433" stroke="#E6E6E6"/>
<line x1="577" y1="432.4" x2="-1.99328e-08" y2="432.4" stroke="#E6E6E6"/>
<line x1="577" y1="576.367" x2="-1.99328e-08" y2="576.367" stroke="#E6E6E6"/>
<line x1="577" y1="720.334" x2="-1.99328e-08" y2="720.334" stroke="#E6E6E6"/>
<line x1="577" y1="864.301" x2="-1.99328e-08" y2="864.301" stroke="#E6E6E6"/>
<line x1="577" y1="14.8967" x2="-1.99328e-08" y2="14.8967" stroke="#E6E6E6"/>
<line x1="577" y1="158.863" x2="-1.99328e-08" y2="158.863" stroke="#E6E6E6"/>
<line x1="577" y1="302.83" x2="-1.99328e-08" y2="302.83" stroke="#E6E6E6"/>
<line x1="577" y1="446.797" x2="-1.99328e-08" y2="446.797" stroke="#E6E6E6"/>
<line x1="577" y1="590.764" x2="-1.99328e-08" y2="590.764" stroke="#E6E6E6"/>
<line x1="577" y1="734.73" x2="-1.99328e-08" y2="734.73" stroke="#E6E6E6"/>
<line x1="577" y1="878.697" x2="-1.99328e-08" y2="878.697" stroke="#E6E6E6"/>
<line x1="577" y1="29.293" x2="-1.99328e-08" y2="29.2929" stroke="#E6E6E6"/>
<line x1="577" y1="173.26" x2="-1.99328e-08" y2="173.26" stroke="#E6E6E6"/>
<line x1="577" y1="317.227" x2="-1.99328e-08" y2="317.227" stroke="#E6E6E6"/>
<line x1="577" y1="461.193" x2="-1.99328e-08" y2="461.193" stroke="#E6E6E6"/>
<line x1="577" y1="605.16" x2="-1.99328e-08" y2="605.16" stroke="#E6E6E6"/>
<line x1="577" y1="749.127" x2="-1.99328e-08" y2="749.127" stroke="#E6E6E6"/>
<line x1="577" y1="893.094" x2="-1.99328e-08" y2="893.094" stroke="#E6E6E6"/>
<line x1="577" y1="43.6904" x2="-1.99328e-08" y2="43.6904" stroke="#E6E6E6"/>
<line x1="577" y1="187.656" x2="-1.99328e-08" y2="187.656" stroke="#E6E6E6"/>
<line x1="577" y1="331.623" x2="-1.99328e-08" y2="331.623" stroke="#E6E6E6"/>
<line x1="577" y1="475.59" x2="-1.99328e-08" y2="475.59" stroke="#E6E6E6"/>
<line x1="577" y1="619.557" x2="-1.99328e-08" y2="619.557" stroke="#E6E6E6"/>
<line x1="577" y1="763.524" x2="-1.99328e-08" y2="763.524" stroke="#E6E6E6"/>
<line x1="577" y1="907.49" x2="-1.99328e-08" y2="907.49" stroke="#E6E6E6"/>
<line x1="577" y1="58.0867" x2="-1.99328e-08" y2="58.0866" stroke="#E6E6E6"/>
<line x1="577" y1="202.054" x2="-1.99328e-08" y2="202.054" stroke="#E6E6E6"/>
<line x1="577" y1="346.021" x2="-1.99328e-08" y2="346.02" stroke="#E6E6E6"/>
<line x1="577" y1="489.987" x2="-1.99328e-08" y2="489.987" stroke="#E6E6E6"/>
<line x1="577" y1="633.953" x2="-1.99328e-08" y2="633.953" stroke="#E6E6E6"/>
<line x1="577" y1="777.92" x2="-1.99328e-08" y2="777.92" stroke="#E6E6E6"/>
<line x1="577" y1="921.887" x2="-1.99328e-08" y2="921.887" stroke="#E6E6E6"/>
<line x1="577" y1="72.4834" x2="-1.99328e-08" y2="72.4834" stroke="#E6E6E6"/>
<line x1="577" y1="216.45" x2="-1.99328e-08" y2="216.45" stroke="#E6E6E6"/>
<line x1="577" y1="360.417" x2="-1.99328e-08" y2="360.417" stroke="#E6E6E6"/>
<line x1="577" y1="504.384" x2="-1.99328e-08" y2="504.384" stroke="#E6E6E6"/>
<line x1="577" y1="648.351" x2="-1.99328e-08" y2="648.351" stroke="#E6E6E6"/>
<line x1="577" y1="792.316" x2="-1.99328e-08" y2="792.316" stroke="#E6E6E6"/>
<line x1="577" y1="936.283" x2="-1.99328e-08" y2="936.283" stroke="#E6E6E6"/>
<line x1="577" y1="86.8801" x2="-1.99328e-08" y2="86.8801" stroke="#E6E6E6"/>
<line x1="577" y1="230.847" x2="-1.99328e-08" y2="230.847" stroke="#E6E6E6"/>
<line x1="577" y1="374.813" x2="-1.99328e-08" y2="374.813" stroke="#E6E6E6"/>
<line x1="577" y1="518.78" x2="-1.99328e-08" y2="518.78" stroke="#E6E6E6"/>
<line x1="577" y1="662.747" x2="-1.99328e-08" y2="662.747" stroke="#E6E6E6"/>
<line x1="577" y1="806.714" x2="-1.99328e-08" y2="806.714" stroke="#E6E6E6"/>
<line x1="577" y1="950.681" x2="-1.99328e-08" y2="950.681" stroke="#E6E6E6"/>
<line x1="577" y1="101.276" x2="-1.99328e-08" y2="101.276" stroke="#E6E6E6"/>
<line x1="577" y1="245.243" x2="-1.99328e-08" y2="245.243" stroke="#E6E6E6"/>
<line x1="577" y1="389.21" x2="-1.99328e-08" y2="389.21" stroke="#E6E6E6"/>
<line x1="577" y1="533.177" x2="-1.99328e-08" y2="533.177" stroke="#E6E6E6"/>
<line x1="577" y1="677.144" x2="-1.99328e-08" y2="677.144" stroke="#E6E6E6"/>
<line x1="577" y1="821.11" x2="-1.99328e-08" y2="821.11" stroke="#E6E6E6"/>
<line x1="577" y1="965.077" x2="-1.99328e-08" y2="965.077" stroke="#E6E6E6"/>
<line x1="577" y1="115.674" x2="-1.99328e-08" y2="115.674" stroke="#E6E6E6"/>
<line x1="577" y1="259.64" x2="-1.99328e-08" y2="259.64" stroke="#E6E6E6"/>
<line x1="577" y1="403.606" x2="-1.99328e-08" y2="403.606" stroke="#E6E6E6"/>
<line x1="577" y1="547.573" x2="-1.99328e-08" y2="547.573" stroke="#E6E6E6"/>
<line x1="577" y1="691.54" x2="-1.99328e-08" y2="691.54" stroke="#E6E6E6"/>
<line x1="577" y1="835.507" x2="-1.99328e-08" y2="835.507" stroke="#E6E6E6"/>
<line x1="577" y1="979.474" x2="-1.99328e-08" y2="979.474" stroke="#E6E6E6"/>
<line x1="577" y1="1008.27" x2="-1.99328e-08" y2="1008.27" stroke="#E6E6E6"/>
<line x1="577" y1="130.07" x2="-1.99328e-08" y2="130.07" stroke="#E6E6E6"/>
<line x1="577" y1="274.037" x2="-1.99328e-08" y2="274.037" stroke="#E6E6E6"/>
<line x1="577" y1="418.004" x2="-1.99328e-08" y2="418.004" stroke="#E6E6E6"/>
<line x1="577" y1="561.971" x2="-1.99328e-08" y2="561.971" stroke="#E6E6E6"/>
<line x1="577" y1="705.937" x2="-1.99328e-08" y2="705.937" stroke="#E6E6E6"/>
<line x1="577" y1="849.903" x2="-1.99328e-08" y2="849.903" stroke="#E6E6E6"/>
<line x1="577" y1="993.87" x2="-1.99328e-08" y2="993.87" stroke="#E6E6E6"/>
<line x1="577" y1="1022.66" x2="-1.99328e-08" y2="1022.66" stroke="#E6E6E6"/>
<line x1="20.8711" y1="1036.44" x2="20.8711" y2="-0.000488281" stroke="#E6E6E6"/>
<line x1="42.2402" y1="1036.44" x2="42.2402" y2="-0.000488281" stroke="#E6E6E6"/>
<line x1="63.6113" y1="1036.44" x2="63.6113" y2="-0.000488281" stroke="#E6E6E6"/>
<line x1="84.9805" y1="1036.44" x2="84.9805" y2="-0.000488281" stroke="#E6E6E6"/>
<line x1="106.352" y1="1036.44" x2="106.352" y2="-0.000488281" stroke="#E6E6E6"/>
<line x1="127.723" y1="1036.44" x2="127.723" y2="-0.000488281" stroke="#E6E6E6"/>
<line x1="149.094" y1="1036.44" x2="149.094" y2="-0.000488281" stroke="#E6E6E6"/>
<line x1="170.463" y1="1036.44" x2="170.463" y2="-0.000488281" stroke="#E6E6E6"/>
<line x1="191.834" y1="1036.44" x2="191.834" y2="-0.000488281" stroke="#E6E6E6"/>
<line x1="213.203" y1="1036.44" x2="213.203" y2="-0.000488281" stroke="#E6E6E6"/>
<line x1="234.574" y1="1036.44" x2="234.574" y2="-0.000488281" stroke="#E6E6E6"/>
<line x1="255.945" y1="1036.44" x2="255.945" y2="-0.000488281" stroke="#E6E6E6"/>
<line x1="277.314" y1="1036.44" x2="277.314" y2="-0.000488281" stroke="#E6E6E6"/>
<line x1="298.686" y1="1036.44" x2="298.686" y2="-0.000488281" stroke="#E6E6E6"/>
<line x1="320.055" y1="1036.44" x2="320.055" y2="-0.000488281" stroke="#E6E6E6"/>
<line x1="341.426" y1="1036.44" x2="341.426" y2="-0.000488281" stroke="#E6E6E6"/>
<line x1="362.797" y1="1036.44" x2="362.797" y2="-0.000488281" stroke="#E6E6E6"/>
<line x1="384.166" y1="1036.44" x2="384.166" y2="-0.000488281" stroke="#E6E6E6"/>
<line x1="405.537" y1="1036.44" x2="405.537" y2="-0.000488281" stroke="#E6E6E6"/>
<line x1="426.906" y1="1036.44" x2="426.906" y2="-0.000488281" stroke="#E6E6E6"/>
<line x1="448.277" y1="1036.44" x2="448.277" y2="-0.000488281" stroke="#E6E6E6"/>
<line x1="469.648" y1="1036.44" x2="469.648" y2="-0.000488281" stroke="#E6E6E6"/>
<line x1="491.02" y1="1036.44" x2="491.02" y2="-0.000488281" stroke="#E6E6E6"/>
<line x1="512.389" y1="1036.44" x2="512.389" y2="-0.000488281" stroke="#E6E6E6"/>
<line x1="533.76" y1="1036.44" x2="533.76" y2="-0.000488281" stroke="#E6E6E6"/>
<line x1="555.129" y1="1036.44" x2="555.129" y2="-0.000488281" stroke="#E6E6E6"/>
<line x1="576.5" y1="1038" x2="576.5" stroke="#E6E6E6"/>
</g>
<rect x="576" y="1" width="1036" height="575" transform="rotate(90 576 1)" stroke="#F2F2F2" stroke-width="2"/>
<defs>
<clipPath id="clip0_1108_124512">
<rect x="577" width="1038" height="577" transform="rotate(90 577 0)" fill="white"/>
</clipPath>
</defs>
</svg>
