<svg width="48" height="48" viewBox="0 0 48 48" fill="none" xmlns="http://www.w3.org/2000/svg">
<path d="M22.9599 4.80005C23.7353 4.80005 24.5107 4.80005 25.2861 4.80005C25.5304 4.83108 25.7748 4.86492 26.0201 4.89219C30.0615 5.34162 33.6649 6.83563 36.694 9.55944C41.5371 13.9155 43.6631 19.3923 43.1161 25.8732C42.852 29.0023 41.8388 31.9198 40.0578 34.5101C35.7514 40.7738 29.7805 43.7186 22.1873 43.1253C18.3377 42.8244 14.9072 41.3191 11.9297 38.8558C8.24738 35.8104 5.94379 31.931 5.0951 27.2121C4.96728 26.5032 4.89679 25.7839 4.79999 25.0684C4.79999 24.3181 4.79999 23.5668 4.79999 22.8165C4.82254 22.7084 4.85732 22.6003 4.86484 22.4912C5.02649 20.1595 5.59229 17.9255 6.63177 15.8382C9.56506 9.94775 14.2784 6.36364 20.74 5.10374C21.4721 4.96177 22.2202 4.89971 22.9599 4.80005ZM25.225 31.9752C27.1131 31.9752 28.9609 31.9799 30.8077 31.963C30.9158 31.9621 31.0746 31.8098 31.1226 31.6922C31.7495 30.1474 32.1639 28.5434 32.398 26.8933C32.4825 26.2954 32.5192 25.6899 32.5775 25.0891H25.225V31.9752ZM22.9458 25.0975H15.6187C15.6018 26.8153 16.3546 30.2622 17.0943 31.7844C17.1431 31.885 17.3405 31.9668 17.4693 31.9677C19.2071 31.9799 20.9449 31.9762 22.6826 31.9752C22.7663 31.9752 22.8499 31.963 22.9458 31.9564V25.0985V25.0975ZM25.2381 16.0611V22.7865H32.5634C32.5399 22.5806 32.5145 22.4076 32.5013 22.2336C32.35 20.1868 31.8585 18.2198 31.1066 16.3149C31.0643 16.2077 30.913 16.0723 30.8115 16.0714C28.9628 16.0564 27.1141 16.0611 25.2381 16.0611ZM22.9421 16.0611C21.0558 16.0611 19.1958 16.0582 17.3367 16.0695C17.2512 16.0695 17.1206 16.1814 17.0877 16.2698C16.8678 16.8527 16.6478 17.4385 16.4655 18.0346C15.9927 19.5794 15.7164 21.1608 15.6243 22.7968H22.943V16.062L22.9421 16.0611ZM7.12613 25.09C7.12613 25.2339 7.11674 25.357 7.12707 25.4783C7.32444 27.6954 7.93441 29.793 8.97013 31.7618C9.02935 31.8737 9.23893 31.9649 9.37991 31.9658C11.0547 31.9799 12.7296 31.9752 14.4053 31.9743C14.4993 31.9743 14.5924 31.9611 14.7277 31.9517C13.9204 29.7131 13.4758 27.4321 13.3499 25.09H7.12613ZM13.3611 22.7977C13.4937 20.4829 13.9439 18.2527 14.7211 16.0855C14.6422 16.0695 14.6065 16.0554 14.5707 16.0554C12.7972 16.0535 11.0237 16.0479 9.25021 16.0629C9.13179 16.0639 8.96449 16.1927 8.90434 16.3074C8.27088 17.5043 7.79625 18.7651 7.51054 20.0871C7.31974 20.9709 7.20132 21.8707 7.04437 22.7977H13.3611ZM40.9779 25.0881H34.8143C34.7015 27.4556 34.2335 29.7309 33.4403 31.9752C35.2598 31.9752 37.0202 31.9799 38.7815 31.9649C38.8877 31.9649 39.0333 31.8314 39.0907 31.7223C39.7401 30.4906 40.2204 29.1912 40.5127 27.8317C40.7054 26.9347 40.8219 26.0227 40.9779 25.0881ZM33.4356 16.0611C34.2354 18.2706 34.6752 20.5008 34.8134 22.7921H40.9225C40.7646 20.4538 40.149 18.2734 39.085 16.219C39.0456 16.1429 38.9159 16.0686 38.8285 16.0676C37.0559 16.0592 35.2824 16.0611 33.4356 16.0611ZM20.2973 7.4778C16.2493 8.46879 13.0256 10.5439 10.4767 13.8083C12.1487 13.8083 13.7343 13.8008 15.3198 13.8149C15.5952 13.8177 15.7371 13.735 15.8621 13.4867C16.6704 11.8855 17.6638 10.4047 18.8443 9.05361C19.2945 8.53836 19.7719 8.04663 20.2973 7.4778ZM20.2766 40.5463C20.2136 40.456 20.1967 40.4212 20.1704 40.3968C18.3856 38.6527 16.9288 36.6679 15.7888 34.4471C15.7305 34.3342 15.5219 34.2393 15.3818 34.2374C14.0952 34.2214 12.8076 34.228 11.52 34.228H10.5209C13.0726 37.484 16.2728 39.5675 20.2766 40.5463ZM37.5502 13.8083C35.2457 10.6586 31.5267 8.27416 27.9355 7.52951C27.9543 7.56524 27.9646 7.60285 27.9881 7.62541C29.7852 9.37798 31.2485 11.3731 32.3923 13.608C32.4459 13.7124 32.6423 13.797 32.7739 13.7998C33.7485 13.8158 34.7241 13.8083 35.6987 13.8083C36.2946 13.8083 36.8914 13.8083 37.5502 13.8083ZM27.9007 40.5388C31.866 39.5487 35.0136 37.4501 37.5098 34.2412C37.3416 34.2318 37.2354 34.2205 37.1283 34.2205C35.6912 34.2195 34.2551 34.228 32.8181 34.212C32.5474 34.2092 32.4252 34.3107 32.3105 34.5373C31.522 36.0915 30.5681 37.5385 29.4271 38.8577C28.9459 39.4133 28.4393 39.9474 27.8998 40.5388H27.9007ZM22.9392 8.19424C21.0304 9.79826 19.4975 11.6355 18.2794 13.7773H22.9392V8.19424ZM29.9064 13.798C28.6658 11.6298 27.1366 9.79074 25.2372 8.20271V13.798H29.9064ZM18.2644 34.2374C19.5078 36.4093 21.0351 38.2493 22.9327 39.8336V34.2374H18.2644ZM25.2315 34.2374V39.8411C27.1404 38.238 28.6667 36.3943 29.8989 34.2374H25.2315Z" fill="black"/>
</svg>
