<svg width="200" height="200" viewBox="0 0 200 200" fill="none" xmlns="http://www.w3.org/2000/svg">
<path d="M32.4974 100C32.4974 85.7502 44.0807 74.1668 58.3307 74.1668H91.6641V58.3335H58.3307C47.28 58.3335 36.682 62.7234 28.8679 70.5374C21.0539 78.3514 16.6641 88.9495 16.6641 100C16.6641 111.051 21.0539 121.649 28.8679 129.463C36.682 137.277 47.28 141.667 58.3307 141.667H91.6641V125.834H58.3307C44.0807 125.834 32.4974 114.25 32.4974 100ZM66.6641 108.333H133.331V91.6668H66.6641V108.333ZM141.664 58.3335H108.331V74.1668H141.664C155.914 74.1668 167.497 85.7502 167.497 100C167.497 114.25 155.914 125.834 141.664 125.834H108.331V141.667H141.664C152.715 141.667 163.313 137.277 171.127 129.463C178.941 121.649 183.331 111.051 183.331 100C183.331 88.9495 178.941 78.3514 171.127 70.5374C163.313 62.7234 152.715 58.3335 141.664 58.3335Z" fill="black"/>
</svg>
