<svg width="32" height="33" viewBox="0 0 32 33" fill="none" xmlns="http://www.w3.org/2000/svg">
<path d="M16 23.1666C16.7073 23.1666 17.3856 22.8856 17.8857 22.3855C18.3858 21.8854 18.6667 21.2072 18.6667 20.4999C18.6667 19.0199 17.4667 17.8333 16 17.8333C15.2928 17.8333 14.6145 18.1142 14.1144 18.6143C13.6143 19.1144 13.3334 19.7927 13.3334 20.4999C13.3334 21.2072 13.6143 21.8854 14.1144 22.3855C14.6145 22.8856 15.2928 23.1666 16 23.1666ZM24 11.1666C24.7073 11.1666 25.3856 11.4475 25.8857 11.9476C26.3858 12.4477 26.6667 13.126 26.6667 13.8333V27.1666C26.6667 27.8738 26.3858 28.5521 25.8857 29.0522C25.3856 29.5523 24.7073 29.8333 24 29.8333H8.00004C7.2928 29.8333 6.61452 29.5523 6.11442 29.0522C5.61433 28.5521 5.33337 27.8738 5.33337 27.1666V13.8333C5.33337 12.3533 6.53337 11.1666 8.00004 11.1666H9.33337V8.49992C9.33337 6.73181 10.0358 5.03612 11.286 3.78587C12.5362 2.53563 14.2319 1.83325 16 1.83325C16.8755 1.83325 17.7424 2.00569 18.5513 2.34072C19.3601 2.67575 20.095 3.16682 20.7141 3.78587C21.3331 4.40493 21.8242 5.13986 22.1592 5.9487C22.4943 6.75753 22.6667 7.62444 22.6667 8.49992V11.1666H24ZM16 4.49992C14.9392 4.49992 13.9218 4.92135 13.1716 5.67149C12.4215 6.42164 12 7.43905 12 8.49992V11.1666H20V8.49992C20 7.43905 19.5786 6.42164 18.8285 5.67149C18.0783 4.92135 17.0609 4.49992 16 4.49992Z" fill="#999999"/>
</svg>
