<svg width="32" height="32" viewBox="0 0 32 32" fill="none" xmlns="http://www.w3.org/2000/svg">
<path d="M16 22.6667C16.7072 22.6667 17.3855 22.3858 17.8856 21.8857C18.3857 21.3856 18.6666 20.7073 18.6666 20C18.6666 18.52 17.4666 17.3334 16 17.3334C15.2927 17.3334 14.6145 17.6143 14.1144 18.1144C13.6143 18.6145 13.3333 19.2928 13.3333 20C13.3333 20.7073 13.6143 21.3856 14.1144 21.8857C14.6145 22.3858 15.2927 22.6667 16 22.6667ZM24 10.6667C24.7072 10.6667 25.3855 10.9477 25.8856 11.4478C26.3857 11.9479 26.6666 12.6261 26.6666 13.3334V26.6667C26.6666 27.374 26.3857 28.0522 25.8856 28.5523C25.3855 29.0524 24.7072 29.3334 24 29.3334H7.99998C7.29274 29.3334 6.61446 29.0524 6.11436 28.5523C5.61426 28.0522 5.33331 27.374 5.33331 26.6667V13.3334C5.33331 11.8534 6.53331 10.6667 7.99998 10.6667H9.33331V8.00004C9.33331 6.23193 10.0357 4.53624 11.2859 3.286C12.5362 2.03575 14.2319 1.33337 16 1.33337C16.8755 1.33337 17.7424 1.50581 18.5512 1.84084C19.36 2.17588 20.095 2.66694 20.714 3.286C21.3331 3.90505 21.8241 4.63998 22.1592 5.44882C22.4942 6.25765 22.6666 7.12456 22.6666 8.00004V10.6667H24ZM16 4.00004C14.9391 4.00004 13.9217 4.42147 13.1716 5.17161C12.4214 5.92176 12 6.93917 12 8.00004V10.6667H20V8.00004C20 6.93917 19.5786 5.92176 18.8284 5.17161C18.0783 4.42147 17.0608 4.00004 16 4.00004Z" fill="#262626"/>
</svg>
