<svg width="1920" height="960" viewBox="0 0 1920 960" fill="none" xmlns="http://www.w3.org/2000/svg">
<path fill-rule="evenodd" clip-rule="evenodd" d="M0.000278701 960L0.000355787 0L0.729008 1.7338e-08L0.728931 960H0.000278701Z" fill="#F2F2F2"/>
<path fill-rule="evenodd" clip-rule="evenodd" d="M266.297 960L266.297 0L267.026 6.45982e-08L267.026 960H266.297Z" fill="#F2F2F2"/>
<path fill-rule="evenodd" clip-rule="evenodd" d="M532.594 960V0L533.323 6.45982e-08V960H532.594Z" fill="#F2F2F2"/>
<path fill-rule="evenodd" clip-rule="evenodd" d="M798.891 960V0L799.62 6.45982e-08V960H798.891Z" fill="#F2F2F2"/>
<path fill-rule="evenodd" clip-rule="evenodd" d="M1065.19 960V0L1065.92 6.45982e-08V960H1065.19Z" fill="#F2F2F2"/>
<path fill-rule="evenodd" clip-rule="evenodd" d="M1331.48 960V0L1332.21 6.45982e-08V960H1331.48Z" fill="#F2F2F2"/>
<path fill-rule="evenodd" clip-rule="evenodd" d="M1597.78 960V0L1598.51 6.45982e-08V960H1597.78Z" fill="#F2F2F2"/>
<path fill-rule="evenodd" clip-rule="evenodd" d="M26.6303 960L26.6303 0L27.359 6.45982e-08L27.359 960H26.6303Z" fill="#F2F2F2"/>
<path fill-rule="evenodd" clip-rule="evenodd" d="M292.927 960L292.927 0L293.656 6.45982e-08V960H292.927Z" fill="#F2F2F2"/>
<path fill-rule="evenodd" clip-rule="evenodd" d="M559.224 960V0L559.953 6.45982e-08V960H559.224Z" fill="#F2F2F2"/>
<path fill-rule="evenodd" clip-rule="evenodd" d="M825.52 960V0L826.248 6.45982e-08V960H825.52Z" fill="#F2F2F2"/>
<path fill-rule="evenodd" clip-rule="evenodd" d="M1091.82 960V0L1092.55 6.45982e-08V960H1091.82Z" fill="#F2F2F2"/>
<path fill-rule="evenodd" clip-rule="evenodd" d="M1358.11 960V0L1358.84 6.45982e-08V960H1358.11Z" fill="#F2F2F2"/>
<path fill-rule="evenodd" clip-rule="evenodd" d="M1624.41 960V0L1625.14 6.45982e-08V960H1624.41Z" fill="#F2F2F2"/>
<path fill-rule="evenodd" clip-rule="evenodd" d="M53.2603 960L53.2603 0L53.989 6.45982e-08L53.9889 960H53.2603Z" fill="#F2F2F2"/>
<path fill-rule="evenodd" clip-rule="evenodd" d="M319.556 960L319.556 0L320.284 6.45982e-08L320.284 960H319.556Z" fill="#F2F2F2"/>
<path fill-rule="evenodd" clip-rule="evenodd" d="M585.854 960V0L586.583 6.45982e-08V960H585.854Z" fill="#F2F2F2"/>
<path fill-rule="evenodd" clip-rule="evenodd" d="M852.15 960V0L852.878 6.45982e-08V960H852.15Z" fill="#F2F2F2"/>
<path fill-rule="evenodd" clip-rule="evenodd" d="M1118.45 960V0L1119.18 6.45982e-08V960H1118.45Z" fill="#F2F2F2"/>
<path fill-rule="evenodd" clip-rule="evenodd" d="M1384.74 960V0L1385.47 6.45982e-08V960H1384.74Z" fill="#F2F2F2"/>
<path fill-rule="evenodd" clip-rule="evenodd" d="M1651.04 960V0L1651.77 6.45982e-08V960H1651.04Z" fill="#F2F2F2"/>
<path fill-rule="evenodd" clip-rule="evenodd" d="M79.8903 960L79.8903 0L80.6189 6.45982e-08L80.6189 960H79.8903Z" fill="#F2F2F2"/>
<path fill-rule="evenodd" clip-rule="evenodd" d="M346.186 960L346.186 0L346.914 6.45982e-08L346.914 960H346.186Z" fill="#F2F2F2"/>
<path fill-rule="evenodd" clip-rule="evenodd" d="M612.483 960V0L613.211 6.45982e-08V960H612.483Z" fill="#F2F2F2"/>
<path fill-rule="evenodd" clip-rule="evenodd" d="M878.779 960V0L879.508 6.45982e-08V960H878.779Z" fill="#F2F2F2"/>
<path fill-rule="evenodd" clip-rule="evenodd" d="M1145.08 960V0L1145.8 6.45982e-08V960H1145.08Z" fill="#F2F2F2"/>
<path fill-rule="evenodd" clip-rule="evenodd" d="M1411.37 960V0L1412.1 6.45982e-08V960H1411.37Z" fill="#F2F2F2"/>
<path fill-rule="evenodd" clip-rule="evenodd" d="M1677.67 960V0L1678.4 6.45982e-08V960H1677.67Z" fill="#F2F2F2"/>
<path fill-rule="evenodd" clip-rule="evenodd" d="M106.519 960L106.519 0L107.247 6.45982e-08L107.247 960H106.519Z" fill="#F2F2F2"/>
<path fill-rule="evenodd" clip-rule="evenodd" d="M372.816 960L372.816 0L373.544 6.45982e-08V960H372.816Z" fill="#F2F2F2"/>
<path fill-rule="evenodd" clip-rule="evenodd" d="M639.113 960V0L639.841 6.45982e-08V960H639.113Z" fill="#F2F2F2"/>
<path fill-rule="evenodd" clip-rule="evenodd" d="M905.409 960V0L906.138 6.45982e-08V960H905.409Z" fill="#F2F2F2"/>
<path fill-rule="evenodd" clip-rule="evenodd" d="M1171.71 960V0L1172.43 6.45982e-08V960H1171.71Z" fill="#F2F2F2"/>
<path fill-rule="evenodd" clip-rule="evenodd" d="M1438 960V0L1438.73 6.45982e-08V960H1438Z" fill="#F2F2F2"/>
<path fill-rule="evenodd" clip-rule="evenodd" d="M1704.3 960V0L1705.03 6.45982e-08V960H1704.3Z" fill="#F2F2F2"/>
<path fill-rule="evenodd" clip-rule="evenodd" d="M133.149 960L133.149 0L133.877 6.45982e-08L133.877 960H133.149Z" fill="#F2F2F2"/>
<path fill-rule="evenodd" clip-rule="evenodd" d="M399.446 960V0L400.174 6.45982e-08V960H399.446Z" fill="#F2F2F2"/>
<path fill-rule="evenodd" clip-rule="evenodd" d="M665.743 960V0L666.471 6.45982e-08V960H665.743Z" fill="#F2F2F2"/>
<path fill-rule="evenodd" clip-rule="evenodd" d="M932.04 960V0L932.768 6.45982e-08V960H932.04Z" fill="#F2F2F2"/>
<path fill-rule="evenodd" clip-rule="evenodd" d="M1198.33 960V0L1199.06 6.45982e-08V960H1198.33Z" fill="#F2F2F2"/>
<path fill-rule="evenodd" clip-rule="evenodd" d="M1464.63 960V0L1465.36 6.45982e-08V960H1464.63Z" fill="#F2F2F2"/>
<path fill-rule="evenodd" clip-rule="evenodd" d="M1730.93 960V0L1731.66 6.45982e-08V960H1730.93Z" fill="#F2F2F2"/>
<path fill-rule="evenodd" clip-rule="evenodd" d="M159.777 960L159.777 0L160.506 6.45982e-08L160.506 960H159.777Z" fill="#F2F2F2"/>
<path fill-rule="evenodd" clip-rule="evenodd" d="M426.076 960V0L426.804 6.45982e-08V960H426.076Z" fill="#F2F2F2"/>
<path fill-rule="evenodd" clip-rule="evenodd" d="M692.371 960V0L693.1 6.45982e-08V960H692.371Z" fill="#F2F2F2"/>
<path fill-rule="evenodd" clip-rule="evenodd" d="M958.668 960V0L959.397 6.45982e-08V960H958.668Z" fill="#F2F2F2"/>
<path fill-rule="evenodd" clip-rule="evenodd" d="M1224.96 960V0L1225.69 6.45982e-08V960H1224.96Z" fill="#F2F2F2"/>
<path fill-rule="evenodd" clip-rule="evenodd" d="M1491.26 960V0L1491.99 6.45982e-08V960H1491.26Z" fill="#F2F2F2"/>
<path fill-rule="evenodd" clip-rule="evenodd" d="M1757.56 960V0L1758.29 6.45982e-08V960H1757.56Z" fill="#F2F2F2"/>
<path fill-rule="evenodd" clip-rule="evenodd" d="M186.409 960L186.409 0L187.137 6.45982e-08L187.137 960H186.409Z" fill="#F2F2F2"/>
<path fill-rule="evenodd" clip-rule="evenodd" d="M452.704 960V0L453.433 6.45982e-08V960H452.704Z" fill="#F2F2F2"/>
<path fill-rule="evenodd" clip-rule="evenodd" d="M719.001 960V0L719.73 6.45982e-08V960H719.001Z" fill="#F2F2F2"/>
<path fill-rule="evenodd" clip-rule="evenodd" d="M985.298 960V0L986.027 6.45982e-08V960H985.298Z" fill="#F2F2F2"/>
<path fill-rule="evenodd" clip-rule="evenodd" d="M1251.59 960V0L1252.32 6.45982e-08V960H1251.59Z" fill="#F2F2F2"/>
<path fill-rule="evenodd" clip-rule="evenodd" d="M1517.89 960V0L1518.62 6.45982e-08V960H1517.89Z" fill="#F2F2F2"/>
<path fill-rule="evenodd" clip-rule="evenodd" d="M1784.19 960V0L1784.92 6.45982e-08V960H1784.19Z" fill="#F2F2F2"/>
<path fill-rule="evenodd" clip-rule="evenodd" d="M213.037 960L213.037 0L213.766 6.45982e-08L213.766 960H213.037Z" fill="#F2F2F2"/>
<path fill-rule="evenodd" clip-rule="evenodd" d="M479.334 960V0L480.063 6.45982e-08V960H479.334Z" fill="#F2F2F2"/>
<path fill-rule="evenodd" clip-rule="evenodd" d="M745.631 960V0L746.36 6.45982e-08V960H745.631Z" fill="#F2F2F2"/>
<path fill-rule="evenodd" clip-rule="evenodd" d="M1011.93 960V0L1012.66 6.45982e-08V960H1011.93Z" fill="#F2F2F2"/>
<path fill-rule="evenodd" clip-rule="evenodd" d="M1278.22 960V0L1278.95 6.45982e-08V960H1278.22Z" fill="#F2F2F2"/>
<path fill-rule="evenodd" clip-rule="evenodd" d="M1544.52 960V0L1545.25 6.45982e-08V960H1544.52Z" fill="#F2F2F2"/>
<path fill-rule="evenodd" clip-rule="evenodd" d="M1810.82 960V0L1811.55 6.45982e-08V960H1810.82Z" fill="#F2F2F2"/>
<path fill-rule="evenodd" clip-rule="evenodd" d="M1864.08 960V0L1864.81 6.45982e-08V960H1864.08Z" fill="#F2F2F2"/>
<path fill-rule="evenodd" clip-rule="evenodd" d="M239.667 960L239.667 0L240.396 6.45982e-08L240.396 960H239.667Z" fill="#F2F2F2"/>
<path fill-rule="evenodd" clip-rule="evenodd" d="M505.964 960V0L506.693 6.45982e-08V960H505.964Z" fill="#F2F2F2"/>
<path fill-rule="evenodd" clip-rule="evenodd" d="M772.261 960V0L772.99 6.45982e-08V960H772.261Z" fill="#F2F2F2"/>
<path fill-rule="evenodd" clip-rule="evenodd" d="M1038.56 960V0L1039.29 6.45982e-08V960H1038.56Z" fill="#F2F2F2"/>
<path fill-rule="evenodd" clip-rule="evenodd" d="M1304.85 960V0L1305.58 6.45982e-08V960H1304.85Z" fill="#F2F2F2"/>
<path fill-rule="evenodd" clip-rule="evenodd" d="M1571.15 960V0L1571.88 6.45982e-08V960H1571.15Z" fill="#F2F2F2"/>
<path fill-rule="evenodd" clip-rule="evenodd" d="M1837.45 960V0L1838.18 6.45982e-08V960H1837.45Z" fill="#F2F2F2"/>
<path fill-rule="evenodd" clip-rule="evenodd" d="M1890.71 960V0L1891.44 6.45982e-08V960H1890.71Z" fill="#F2F2F2"/>
<path fill-rule="evenodd" clip-rule="evenodd" d="M0.000355787 924.445H1918.87V925.121H0.000355787V924.445Z" fill="#F2F2F2"/>
<path fill-rule="evenodd" clip-rule="evenodd" d="M0.000355787 888.889H1918.87V889.565H0.000355787V888.889Z" fill="#F2F2F2"/>
<path fill-rule="evenodd" clip-rule="evenodd" d="M0.000355787 853.333H1918.87V854.01H0.000355787V853.333Z" fill="#F2F2F2"/>
<path fill-rule="evenodd" clip-rule="evenodd" d="M0.000355787 817.778H1918.87V818.455H0.000355787V817.778Z" fill="#F2F2F2"/>
<path fill-rule="evenodd" clip-rule="evenodd" d="M0 782.223H1918.87V782.899H0V782.223Z" fill="#F2F2F2"/>
<path fill-rule="evenodd" clip-rule="evenodd" d="M0.000355787 746.667H1918.87V747.343H0.000355787V746.667Z" fill="#F2F2F2"/>
<path fill-rule="evenodd" clip-rule="evenodd" d="M0.000355787 711.111H1918.87V711.788H0.000355787V711.111Z" fill="#F2F2F2"/>
<path fill-rule="evenodd" clip-rule="evenodd" d="M0.000355787 675.556H1918.87V676.232H0.000355787V675.556Z" fill="#F2F2F2"/>
<path fill-rule="evenodd" clip-rule="evenodd" d="M0.000355787 640H1918.87V640.677H0.000355787V640Z" fill="#F2F2F2"/>
<path fill-rule="evenodd" clip-rule="evenodd" d="M0.000355787 604.444H1918.87V605.121H0.000355787V604.444Z" fill="#F2F2F2"/>
<path fill-rule="evenodd" clip-rule="evenodd" d="M0.000355787 568.889H1918.87V569.565H0.000355787V568.889Z" fill="#F2F2F2"/>
<path fill-rule="evenodd" clip-rule="evenodd" d="M0 533.333H1918.87V534.01H0V533.333Z" fill="#F2F2F2"/>
<path fill-rule="evenodd" clip-rule="evenodd" d="M0 497.778H1918.87V498.454H0V497.778Z" fill="#F2F2F2"/>
<path fill-rule="evenodd" clip-rule="evenodd" d="M0 462.223H1918.87V462.899H0V462.223Z" fill="#F2F2F2"/>
<path fill-rule="evenodd" clip-rule="evenodd" d="M0 426.667H1918.87V427.343H0V426.667Z" fill="#F2F2F2"/>
<path fill-rule="evenodd" clip-rule="evenodd" d="M0 391.111H1918.87V391.788H0V391.111Z" fill="#F2F2F2"/>
<path fill-rule="evenodd" clip-rule="evenodd" d="M0.000355787 355.556H1918.87V356.232H0.000355787V355.556Z" fill="#F2F2F2"/>
<path fill-rule="evenodd" clip-rule="evenodd" d="M0.000355787 320H1918.87V320.677H0.000355787V320Z" fill="#F2F2F2"/>
<path fill-rule="evenodd" clip-rule="evenodd" d="M0.000355787 284.444H1918.87V285.121H0.000355787V284.444Z" fill="#F2F2F2"/>
<path fill-rule="evenodd" clip-rule="evenodd" d="M0.000355787 248.889H1918.87V249.565H0.000355787V248.889Z" fill="#F2F2F2"/>
<path fill-rule="evenodd" clip-rule="evenodd" d="M0 213.333H1918.87V214.01H0V213.333Z" fill="#F2F2F2"/>
<path fill-rule="evenodd" clip-rule="evenodd" d="M0 177.778H1918.87V178.454H0V177.778Z" fill="#F2F2F2"/>
<path fill-rule="evenodd" clip-rule="evenodd" d="M0 142.223H1918.87V142.899H0V142.223Z" fill="#F2F2F2"/>
<path fill-rule="evenodd" clip-rule="evenodd" d="M0 106.667H1918.87V107.343H0V106.667Z" fill="#F2F2F2"/>
<path fill-rule="evenodd" clip-rule="evenodd" d="M0.000355787 71.1111H1918.87V71.7876H0.000355787V71.1111Z" fill="#F2F2F2"/>
<path fill-rule="evenodd" clip-rule="evenodd" d="M0.000355787 35.5556H1918.87V36.2321H0.000355787V35.5556Z" fill="#F2F2F2"/>
<path fill-rule="evenodd" clip-rule="evenodd" d="M0.000355787 0H1920V0.676533H0.000355787V0Z" fill="#F2F2F2"/>
<path d="M213.496 142.748H239.727V177.928H213.496V142.748Z" fill="#262626"/>
<path d="M1491.55 783.5H1517.78V818.68H1491.55V783.5Z" fill="#D53636"/>
<path d="M32.0611 853.108H58.2926V888.288H32.0611V853.108Z" fill="#D53636"/>
<path d="M1705.05 675.856H1731.28V711.036H1705.05V675.856Z" fill="#262626"/>
<path d="M1758 248.964H1784.23V284.144H1758V248.964Z" fill="#666666"/>
<path d="M799.332 142.748H825.564V177.928H799.332V142.748Z" fill="#E6E6E6"/>
<path d="M1225.59 2.70613H1251.83V37.8858H1225.59V2.70613Z" fill="#B3B3B3"/>
<path d="M466.338 853.108H492.57V888.288H466.338V853.108Z" fill="#666666"/>
</svg>
