<svg width="20" height="20" viewBox="0 0 20 20" fill="none" xmlns="http://www.w3.org/2000/svg">
<path d="M13.3333 14.168V11.668H7.5V8.33464H13.3333V5.83464L17.5 10.0013L13.3333 14.168ZM11.6667 1.66797C12.1087 1.66797 12.5326 1.84356 12.8452 2.15612C13.1577 2.46868 13.3333 2.89261 13.3333 3.33464V5.0013H11.6667V3.33464H4.16667V16.668H11.6667V15.0013H13.3333V16.668C13.3333 17.11 13.1577 17.5339 12.8452 17.8465C12.5326 18.159 12.1087 18.3346 11.6667 18.3346H4.16667C3.72464 18.3346 3.30072 18.159 2.98816 17.8465C2.67559 17.5339 2.5 17.11 2.5 16.668V3.33464C2.5 2.89261 2.67559 2.46868 2.98816 2.15612C3.30072 1.84356 3.72464 1.66797 4.16667 1.66797H11.6667Z" fill="#D53636"/>
</svg>
