<svg width="32" height="32" viewBox="0 0 32 32" fill="none" xmlns="http://www.w3.org/2000/svg">
<path d="M25.3333 4H6.66667C5.18667 4 4 5.18667 4 6.66667V12H6.66667V6.66667H25.3333V25.3333H6.66667V20H4V25.3333C4 26.0406 4.28095 26.7189 4.78105 27.219C5.28115 27.719 5.95942 28 6.66667 28H25.3333C26.0406 28 26.7189 27.719 27.219 27.219C27.719 26.7189 28 26.0406 28 25.3333V6.66667C28 5.18667 26.8 4 25.3333 4ZM13.44 20.7733L15.3333 22.6667L22 16L15.3333 9.33333L13.44 11.2133L16.8933 14.6667H4V17.3333H16.8933L13.44 20.7733Z" fill="#262626"/>
</svg>
