<svg width="32" height="33" viewBox="0 0 32 33" fill="none" xmlns="http://www.w3.org/2000/svg">
<path d="M25.3333 4.5H6.66667C5.18667 4.5 4 5.68667 4 7.16667V12.5H6.66667V7.16667H25.3333V25.8333H6.66667V20.5H4V25.8333C4 26.5406 4.28095 27.2189 4.78105 27.719C5.28115 28.219 5.95942 28.5 6.66667 28.5H25.3333C26.0406 28.5 26.7189 28.219 27.219 27.719C27.719 27.2189 28 26.5406 28 25.8333V7.16667C28 5.68667 26.8 4.5 25.3333 4.5ZM13.44 21.2733L15.3333 23.1667L22 16.5L15.3333 9.83333L13.44 11.7133L16.8933 15.1667H4V17.8333H16.8933L13.44 21.2733Z" fill="#999999"/>
</svg>
