<svg width="710" height="58" viewBox="0 0 710 58" fill="none" xmlns="http://www.w3.org/2000/svg">
<path fill-rule="evenodd" clip-rule="evenodd" d="M183.82 25.1006H316.32C318.53 25.1006 318.97 26.2106 318.97 28.5206C318.97 30.4006 318.97 31.9406 316.32 31.9406H183.82C181.17 31.9406 181.17 30.4006 181.17 28.5206C181.17 26.6406 181.17 25.1006 183.82 25.1006Z" fill="#E31B23"/>
<path d="M368.05 1.00063C371.61 2.25063 374.81 3.39063 377.65 4.43063C380.49 5.47063 383.73 6.65063 387.39 7.97063C391.05 9.30063 394.8 10.6306 398.65 11.9806L429.11 23.0506L489.88 0.920624H518.32L518.9 1.00063C515.05 2.40063 511.66 3.64062 508.72 4.70062C505.78 5.77062 502.88 6.83063 499.99 7.89062C497.1 8.96062 494.07 10.0606 490.9 11.2006C487.72 12.3406 483.99 13.6806 479.71 15.2106C475.43 16.7406 470.37 18.5606 464.55 20.6606C458.73 22.7606 451.77 25.2706 443.69 28.1806C451.87 31.1406 458.89 33.7006 464.76 35.8606C470.63 38.0206 475.73 39.8906 480.06 41.4706C484.39 43.0506 488.16 44.4406 491.39 45.6406C494.61 46.8306 497.62 47.9406 500.41 48.9506C503.2 49.9606 506.04 50.9906 508.93 52.0306C511.81 53.0706 515.09 54.2406 518.74 55.5406H490.31C484.82 53.5706 480.04 51.8506 475.95 50.4006C471.86 48.9506 467.7 47.4406 463.47 45.8806C459.23 44.3206 454.47 42.5806 449.18 40.6606C443.89 38.7406 437.3 36.3506 429.41 33.4906C428.83 33.7006 426.91 34.3906 423.64 35.5506C420.37 36.7206 416.47 38.1206 411.95 39.7606C407.43 41.4006 402.61 43.1406 397.52 44.9806C392.42 46.8306 387.7 48.5306 383.38 50.0806C379.05 51.6406 374 53.4606 368.22 55.5306H339.78C349.21 52.1006 356.83 49.3206 362.66 47.1906C368.48 45.0606 373.1 43.3906 376.52 42.1606C379.94 40.9406 382.41 40.0406 383.95 39.4706C385.49 38.9006 386.69 38.4606 387.56 38.1406C388.43 37.8306 389.22 37.5406 389.94 37.2806C390.66 37.0206 391.86 36.5806 393.55 35.9606C395.23 35.3406 397.71 34.4306 400.98 33.2306C404.25 32.0406 408.87 30.3506 414.84 28.1606C406.76 25.2506 399.8 22.7406 393.98 20.6406C388.16 18.5406 383.1 16.7206 378.82 15.1906C374.54 13.6606 370.81 12.3206 367.64 11.1806C364.46 10.0406 361.43 8.93063 358.55 7.87063C355.66 6.81063 352.75 5.74063 349.82 4.68063C346.88 3.62063 343.49 2.38063 339.64 0.980629H368.08L368.05 1.00063Z" fill="#807F83"/>
<path d="M0.340078 0.830627L27.2401 0.800629V41.5606C27.3101 43.9306 27.5201 45.8806 28.3401 47.0106C29.1501 48.1306 30.3001 48.6706 31.9901 48.7506C40.0801 49.1406 137.66 49.2406 140.95 48.9706C146.89 48.4806 148.19 44.4006 148.45 45.1406C148.45 45.1406 148.71 16.9406 148.45 0.920624C148.45 0.920624 163.22 0.640625 176.33 0.640625C176.33 0.640625 176.36 8.62063 176.33 11.2206C176.3 13.8206 176.33 19.2106 176.33 29.1706C176.33 31.3706 176.33 38.0006 176.33 44.8606C176.33 50.7206 175.81 55.5806 168.18 55.5806C168.18 55.5806 19.6201 55.6006 15.9501 55.6006C11.8001 55.5606 9.74008 55.6006 6.00008 54.5806C2.97008 53.4206 1.07008 52.0306 0.830078 49.6806C0.520078 46.5906 0.520078 34.2106 0.520078 32.1906L0.330078 0.820625L0.340078 0.830627Z" fill="#807F83"/>
<path d="M531.73 7.38062V0.930626L709.31 0.960625L709.01 7.39062H634.15V57.1806L606.91 57.2006V7.39062H531.74L531.73 7.38062Z" fill="#807F83"/>
<path fill-rule="evenodd" clip-rule="evenodd" d="M185.43 7.74992C179.28 7.74992 179.28 4.67992 179.28 0.919922H326.84C326.84 4.67992 326.84 7.74992 320.69 7.74992" fill="#807F83"/>
<path fill-rule="evenodd" clip-rule="evenodd" d="M320.68 48.7305H185.42C179.27 48.7305 179.27 51.8105 179.27 55.5605H326.83C326.83 51.8005 326.829 48.7305 320.68 48.7305Z" fill="#807F83"/>
</svg>
