<svg width="688" height="405" viewBox="0 0 688 405" fill="none" xmlns="http://www.w3.org/2000/svg">
<line y1="74" x2="688" y2="74" stroke="#D9D9D9" stroke-width="2"/>
<line y1="19" x2="688" y2="19" stroke="#D9D9D9" stroke-width="2"/>
<line y1="129" x2="688" y2="129" stroke="#D9D9D9" stroke-width="2"/>
<line y1="184" x2="688" y2="184" stroke="#D9D9D9" stroke-width="2"/>
<line y1="239" x2="688" y2="239" stroke="#D9D9D9" stroke-width="2"/>
<line y1="294" x2="688" y2="294" stroke="#D9D9D9" stroke-width="2"/>
<line y1="349" x2="688" y2="349" stroke="#D9D9D9" stroke-width="2"/>
<line y1="404" x2="688" y2="404" stroke="#D9D9D9" stroke-width="2"/>
<path d="M6.048 12H0.612V11.1L4.092 7.584C4.22 7.456 4.344 7.32 4.464 7.176C4.592 7.024 4.704 6.868 4.8 6.708C4.896 6.548 4.972 6.38 5.028 6.204C5.084 6.02 5.112 5.832 5.112 5.64C5.112 5.392 5.068 5.168 4.98 4.968C4.892 4.768 4.768 4.6 4.608 4.464C4.456 4.32 4.276 4.212 4.068 4.14C3.868 4.06 3.656 4.02 3.432 4.02C2.976 4.02 2.592 4.164 2.28 4.452C1.968 4.732 1.768 5.092 1.68 5.532L0.828 5.364C0.884 5.068 0.988 4.792 1.14 4.536C1.3 4.28 1.492 4.06 1.716 3.876C1.948 3.692 2.208 3.548 2.496 3.444C2.784 3.34 3.096 3.288 3.432 3.288C3.776 3.288 4.1 3.34 4.404 3.444C4.716 3.54 4.988 3.688 5.22 3.888C5.452 4.08 5.636 4.324 5.772 4.62C5.916 4.908 5.988 5.244 5.988 5.628C5.988 5.9 5.948 6.152 5.868 6.384C5.796 6.616 5.696 6.836 5.568 7.044C5.448 7.252 5.304 7.452 5.136 7.644C4.968 7.828 4.792 8.012 4.608 8.196L1.548 11.232H6.048V12ZM13.0089 12H7.57294V11.1L11.0529 7.584C11.1809 7.456 11.3049 7.32 11.4249 7.176C11.5529 7.024 11.6649 6.868 11.7609 6.708C11.8569 6.548 11.9329 6.38 11.9889 6.204C12.0449 6.02 12.0729 5.832 12.0729 5.64C12.0729 5.392 12.0289 5.168 11.9409 4.968C11.8529 4.768 11.7289 4.6 11.5689 4.464C11.4169 4.32 11.2369 4.212 11.0289 4.14C10.8289 4.06 10.6169 4.02 10.3929 4.02C9.93694 4.02 9.55294 4.164 9.24094 4.452C8.92894 4.732 8.72894 5.092 8.64094 5.532L7.78894 5.364C7.84494 5.068 7.94894 4.792 8.10094 4.536C8.26094 4.28 8.45294 4.06 8.67694 3.876C8.90894 3.692 9.16894 3.548 9.45694 3.444C9.74494 3.34 10.0569 3.288 10.3929 3.288C10.7369 3.288 11.0609 3.34 11.3649 3.444C11.6769 3.54 11.9489 3.688 12.1809 3.888C12.4129 4.08 12.5969 4.324 12.7329 4.62C12.8769 4.908 12.9489 5.244 12.9489 5.628C12.9489 5.9 12.9089 6.152 12.8289 6.384C12.7569 6.616 12.6569 6.836 12.5289 7.044C12.4089 7.252 12.2649 7.452 12.0969 7.644C11.9289 7.828 11.7529 8.012 11.5689 8.196L8.50894 11.232H13.0089V12ZM17.4019 3.288C17.9299 3.288 18.3699 3.42 18.7219 3.684C19.0819 3.94 19.3699 4.28 19.5859 4.704C19.8019 5.12 19.9539 5.596 20.0419 6.132C20.1379 6.668 20.1859 7.212 20.1859 7.764C20.1859 8.316 20.1379 8.86 20.0419 9.396C19.9539 9.924 19.8019 10.4 19.5859 10.824C19.3699 11.24 19.0819 11.576 18.7219 11.832C18.3699 12.088 17.9299 12.216 17.4019 12.216C16.8659 12.216 16.4179 12.088 16.0579 11.832C15.7059 11.576 15.4219 11.24 15.2059 10.824C14.9899 10.4 14.8379 9.924 14.7499 9.396C14.6619 8.86 14.6179 8.316 14.6179 7.764C14.6179 7.212 14.6619 6.668 14.7499 6.132C14.8379 5.596 14.9899 5.12 15.2059 4.704C15.4219 4.28 15.7059 3.94 16.0579 3.684C16.4179 3.42 16.8659 3.288 17.4019 3.288ZM17.4019 4.02C17.0259 4.02 16.7139 4.136 16.4659 4.368C16.2179 4.6 16.0219 4.896 15.8779 5.256C15.7339 5.616 15.6339 6.02 15.5779 6.468C15.5219 6.908 15.4939 7.34 15.4939 7.764C15.4939 8.188 15.5219 8.62 15.5779 9.06C15.6339 9.5 15.7339 9.9 15.8779 10.26C16.0219 10.612 16.2179 10.904 16.4659 11.136C16.7139 11.36 17.0259 11.472 17.4019 11.472C17.7699 11.472 18.0779 11.36 18.3259 11.136C18.5739 10.904 18.7699 10.612 18.9139 10.26C19.0579 9.9 19.1579 9.5 19.2139 9.06C19.2779 8.62 19.3099 8.188 19.3099 7.764C19.3099 7.34 19.2779 6.908 19.2139 6.468C19.1579 6.02 19.0579 5.616 18.9139 5.256C18.7699 4.896 18.5739 4.6 18.3259 4.368C18.0779 4.136 17.7699 4.02 17.4019 4.02ZM24.3628 3.288C24.8908 3.288 25.3308 3.42 25.6828 3.684C26.0428 3.94 26.3308 4.28 26.5468 4.704C26.7628 5.12 26.9148 5.596 27.0028 6.132C27.0988 6.668 27.1468 7.212 27.1468 7.764C27.1468 8.316 27.0988 8.86 27.0028 9.396C26.9148 9.924 26.7628 10.4 26.5468 10.824C26.3308 11.24 26.0428 11.576 25.6828 11.832C25.3308 12.088 24.8908 12.216 24.3628 12.216C23.8268 12.216 23.3788 12.088 23.0188 11.832C22.6668 11.576 22.3828 11.24 22.1668 10.824C21.9508 10.4 21.7988 9.924 21.7108 9.396C21.6228 8.86 21.5788 8.316 21.5788 7.764C21.5788 7.212 21.6228 6.668 21.7108 6.132C21.7988 5.596 21.9508 5.12 22.1668 4.704C22.3828 4.28 22.6668 3.94 23.0188 3.684C23.3788 3.42 23.8268 3.288 24.3628 3.288ZM24.3628 4.02C23.9868 4.02 23.6748 4.136 23.4268 4.368C23.1788 4.6 22.9828 4.896 22.8388 5.256C22.6948 5.616 22.5948 6.02 22.5388 6.468C22.4828 6.908 22.4548 7.34 22.4548 7.764C22.4548 8.188 22.4828 8.62 22.5388 9.06C22.5948 9.5 22.6948 9.9 22.8388 10.26C22.9828 10.612 23.1788 10.904 23.4268 11.136C23.6748 11.36 23.9868 11.472 24.3628 11.472C24.7308 11.472 25.0388 11.36 25.2868 11.136C25.5348 10.904 25.7308 10.612 25.8748 10.26C26.0188 9.9 26.1188 9.5 26.1748 9.06C26.2388 8.62 26.2708 8.188 26.2708 7.764C26.2708 7.34 26.2388 6.908 26.1748 6.468C26.1188 6.02 26.0188 5.616 25.8748 5.256C25.7308 4.896 25.5348 4.6 25.2868 4.368C25.0388 4.136 24.7308 4.02 24.3628 4.02Z" fill="#808080"/>
<path d="M3.48 58.288C4.008 58.288 4.448 58.42 4.8 58.684C5.16 58.94 5.448 59.28 5.664 59.704C5.88 60.12 6.032 60.596 6.12 61.132C6.216 61.668 6.264 62.212 6.264 62.764C6.264 63.316 6.216 63.86 6.12 64.396C6.032 64.924 5.88 65.4 5.664 65.824C5.448 66.24 5.16 66.576 4.8 66.832C4.448 67.088 4.008 67.216 3.48 67.216C2.944 67.216 2.496 67.088 2.136 66.832C1.784 66.576 1.5 66.24 1.284 65.824C1.068 65.4 0.916 64.924 0.828 64.396C0.74 63.86 0.696 63.316 0.696 62.764C0.696 62.212 0.74 61.668 0.828 61.132C0.916 60.596 1.068 60.12 1.284 59.704C1.5 59.28 1.784 58.94 2.136 58.684C2.496 58.42 2.944 58.288 3.48 58.288ZM3.48 59.02C3.104 59.02 2.792 59.136 2.544 59.368C2.296 59.6 2.1 59.896 1.956 60.256C1.812 60.616 1.712 61.02 1.656 61.468C1.6 61.908 1.572 62.34 1.572 62.764C1.572 63.188 1.6 63.62 1.656 64.06C1.712 64.5 1.812 64.9 1.956 65.26C2.1 65.612 2.296 65.904 2.544 66.136C2.792 66.36 3.104 66.472 3.48 66.472C3.848 66.472 4.156 66.36 4.404 66.136C4.652 65.904 4.848 65.612 4.992 65.26C5.136 64.9 5.236 64.5 5.292 64.06C5.356 63.62 5.388 63.188 5.388 62.764C5.388 62.34 5.356 61.908 5.292 61.468C5.236 61.02 5.136 60.616 4.992 60.256C4.848 59.896 4.652 59.6 4.404 59.368C4.156 59.136 3.848 59.02 3.48 59.02ZM10.4409 58.288C10.9689 58.288 11.4089 58.42 11.7609 58.684C12.1209 58.94 12.4089 59.28 12.6249 59.704C12.8409 60.12 12.9929 60.596 13.0809 61.132C13.1769 61.668 13.2249 62.212 13.2249 62.764C13.2249 63.316 13.1769 63.86 13.0809 64.396C12.9929 64.924 12.8409 65.4 12.6249 65.824C12.4089 66.24 12.1209 66.576 11.7609 66.832C11.4089 67.088 10.9689 67.216 10.4409 67.216C9.90494 67.216 9.45694 67.088 9.09694 66.832C8.74494 66.576 8.46094 66.24 8.24494 65.824C8.02894 65.4 7.87694 64.924 7.78894 64.396C7.70094 63.86 7.65694 63.316 7.65694 62.764C7.65694 62.212 7.70094 61.668 7.78894 61.132C7.87694 60.596 8.02894 60.12 8.24494 59.704C8.46094 59.28 8.74494 58.94 9.09694 58.684C9.45694 58.42 9.90494 58.288 10.4409 58.288ZM10.4409 59.02C10.0649 59.02 9.75294 59.136 9.50494 59.368C9.25694 59.6 9.06094 59.896 8.91694 60.256C8.77294 60.616 8.67294 61.02 8.61694 61.468C8.56094 61.908 8.53294 62.34 8.53294 62.764C8.53294 63.188 8.56094 63.62 8.61694 64.06C8.67294 64.5 8.77294 64.9 8.91694 65.26C9.06094 65.612 9.25694 65.904 9.50494 66.136C9.75294 66.36 10.0649 66.472 10.4409 66.472C10.8089 66.472 11.1169 66.36 11.3649 66.136C11.6129 65.904 11.8089 65.612 11.9529 65.26C12.0969 64.9 12.1969 64.5 12.2529 64.06C12.3169 63.62 12.3489 63.188 12.3489 62.764C12.3489 62.34 12.3169 61.908 12.2529 61.468C12.1969 61.02 12.0969 60.616 11.9529 60.256C11.8089 59.896 11.6129 59.6 11.3649 59.368C11.1169 59.136 10.8089 59.02 10.4409 59.02ZM17.4019 58.288C17.9299 58.288 18.3699 58.42 18.7219 58.684C19.0819 58.94 19.3699 59.28 19.5859 59.704C19.8019 60.12 19.9539 60.596 20.0419 61.132C20.1379 61.668 20.1859 62.212 20.1859 62.764C20.1859 63.316 20.1379 63.86 20.0419 64.396C19.9539 64.924 19.8019 65.4 19.5859 65.824C19.3699 66.24 19.0819 66.576 18.7219 66.832C18.3699 67.088 17.9299 67.216 17.4019 67.216C16.8659 67.216 16.4179 67.088 16.0579 66.832C15.7059 66.576 15.4219 66.24 15.2059 65.824C14.9899 65.4 14.8379 64.924 14.7499 64.396C14.6619 63.86 14.6179 63.316 14.6179 62.764C14.6179 62.212 14.6619 61.668 14.7499 61.132C14.8379 60.596 14.9899 60.12 15.2059 59.704C15.4219 59.28 15.7059 58.94 16.0579 58.684C16.4179 58.42 16.8659 58.288 17.4019 58.288ZM17.4019 59.02C17.0259 59.02 16.7139 59.136 16.4659 59.368C16.2179 59.6 16.0219 59.896 15.8779 60.256C15.7339 60.616 15.6339 61.02 15.5779 61.468C15.5219 61.908 15.4939 62.34 15.4939 62.764C15.4939 63.188 15.5219 63.62 15.5779 64.06C15.6339 64.5 15.7339 64.9 15.8779 65.26C16.0219 65.612 16.2179 65.904 16.4659 66.136C16.7139 66.36 17.0259 66.472 17.4019 66.472C17.7699 66.472 18.0779 66.36 18.3259 66.136C18.5739 65.904 18.7699 65.612 18.9139 65.26C19.0579 64.9 19.1579 64.5 19.2139 64.06C19.2779 63.62 19.3099 63.188 19.3099 62.764C19.3099 62.34 19.2779 61.908 19.2139 61.468C19.1579 61.02 19.0579 60.616 18.9139 60.256C18.7699 59.896 18.5739 59.6 18.3259 59.368C18.0779 59.136 17.7699 59.02 17.4019 59.02ZM24.3628 58.288C24.8908 58.288 25.3308 58.42 25.6828 58.684C26.0428 58.94 26.3308 59.28 26.5468 59.704C26.7628 60.12 26.9148 60.596 27.0028 61.132C27.0988 61.668 27.1468 62.212 27.1468 62.764C27.1468 63.316 27.0988 63.86 27.0028 64.396C26.9148 64.924 26.7628 65.4 26.5468 65.824C26.3308 66.24 26.0428 66.576 25.6828 66.832C25.3308 67.088 24.8908 67.216 24.3628 67.216C23.8268 67.216 23.3788 67.088 23.0188 66.832C22.6668 66.576 22.3828 66.24 22.1668 65.824C21.9508 65.4 21.7988 64.924 21.7108 64.396C21.6228 63.86 21.5788 63.316 21.5788 62.764C21.5788 62.212 21.6228 61.668 21.7108 61.132C21.7988 60.596 21.9508 60.12 22.1668 59.704C22.3828 59.28 22.6668 58.94 23.0188 58.684C23.3788 58.42 23.8268 58.288 24.3628 58.288ZM24.3628 59.02C23.9868 59.02 23.6748 59.136 23.4268 59.368C23.1788 59.6 22.9828 59.896 22.8388 60.256C22.6948 60.616 22.5948 61.02 22.5388 61.468C22.4828 61.908 22.4548 62.34 22.4548 62.764C22.4548 63.188 22.4828 63.62 22.5388 64.06C22.5948 64.5 22.6948 64.9 22.8388 65.26C22.9828 65.612 23.1788 65.904 23.4268 66.136C23.6748 66.36 23.9868 66.472 24.3628 66.472C24.7308 66.472 25.0388 66.36 25.2868 66.136C25.5348 65.904 25.7308 65.612 25.8748 65.26C26.0188 64.9 26.1188 64.5 26.1748 64.06C26.2388 63.62 26.2708 63.188 26.2708 62.764C26.2708 62.34 26.2388 61.908 26.1748 61.468C26.1188 61.02 26.0188 60.616 25.8748 60.256C25.7308 59.896 25.5348 59.6 25.2868 59.368C25.0388 59.136 24.7308 59.02 24.3628 59.02Z" fill="#808080"/>
<path d="M3.48 113.288C4.008 113.288 4.448 113.42 4.8 113.684C5.16 113.94 5.448 114.28 5.664 114.704C5.88 115.12 6.032 115.596 6.12 116.132C6.216 116.668 6.264 117.212 6.264 117.764C6.264 118.316 6.216 118.86 6.12 119.396C6.032 119.924 5.88 120.4 5.664 120.824C5.448 121.24 5.16 121.576 4.8 121.832C4.448 122.088 4.008 122.216 3.48 122.216C2.944 122.216 2.496 122.088 2.136 121.832C1.784 121.576 1.5 121.24 1.284 120.824C1.068 120.4 0.916 119.924 0.828 119.396C0.74 118.86 0.696 118.316 0.696 117.764C0.696 117.212 0.74 116.668 0.828 116.132C0.916 115.596 1.068 115.12 1.284 114.704C1.5 114.28 1.784 113.94 2.136 113.684C2.496 113.42 2.944 113.288 3.48 113.288ZM3.48 114.02C3.104 114.02 2.792 114.136 2.544 114.368C2.296 114.6 2.1 114.896 1.956 115.256C1.812 115.616 1.712 116.02 1.656 116.468C1.6 116.908 1.572 117.34 1.572 117.764C1.572 118.188 1.6 118.62 1.656 119.06C1.712 119.5 1.812 119.9 1.956 120.26C2.1 120.612 2.296 120.904 2.544 121.136C2.792 121.36 3.104 121.472 3.48 121.472C3.848 121.472 4.156 121.36 4.404 121.136C4.652 120.904 4.848 120.612 4.992 120.26C5.136 119.9 5.236 119.5 5.292 119.06C5.356 118.62 5.388 118.188 5.388 117.764C5.388 117.34 5.356 116.908 5.292 116.468C5.236 116.02 5.136 115.616 4.992 115.256C4.848 114.896 4.652 114.6 4.404 114.368C4.156 114.136 3.848 114.02 3.48 114.02ZM13.0089 122H7.57294V121.1L11.0529 117.584C11.1809 117.456 11.3049 117.32 11.4249 117.176C11.5529 117.024 11.6649 116.868 11.7609 116.708C11.8569 116.548 11.9329 116.38 11.9889 116.204C12.0449 116.02 12.0729 115.832 12.0729 115.64C12.0729 115.392 12.0289 115.168 11.9409 114.968C11.8529 114.768 11.7289 114.6 11.5689 114.464C11.4169 114.32 11.2369 114.212 11.0289 114.14C10.8289 114.06 10.6169 114.02 10.3929 114.02C9.93694 114.02 9.55294 114.164 9.24094 114.452C8.92894 114.732 8.72894 115.092 8.64094 115.532L7.78894 115.364C7.84494 115.068 7.94894 114.792 8.10094 114.536C8.26094 114.28 8.45294 114.06 8.67694 113.876C8.90894 113.692 9.16894 113.548 9.45694 113.444C9.74494 113.34 10.0569 113.288 10.3929 113.288C10.7369 113.288 11.0609 113.34 11.3649 113.444C11.6769 113.54 11.9489 113.688 12.1809 113.888C12.4129 114.08 12.5969 114.324 12.7329 114.62C12.8769 114.908 12.9489 115.244 12.9489 115.628C12.9489 115.9 12.9089 116.152 12.8289 116.384C12.7569 116.616 12.6569 116.836 12.5289 117.044C12.4089 117.252 12.2649 117.452 12.0969 117.644C11.9289 117.828 11.7529 118.012 11.5689 118.196L8.50894 121.232H13.0089V122ZM17.4019 113.288C17.9299 113.288 18.3699 113.42 18.7219 113.684C19.0819 113.94 19.3699 114.28 19.5859 114.704C19.8019 115.12 19.9539 115.596 20.0419 116.132C20.1379 116.668 20.1859 117.212 20.1859 117.764C20.1859 118.316 20.1379 118.86 20.0419 119.396C19.9539 119.924 19.8019 120.4 19.5859 120.824C19.3699 121.24 19.0819 121.576 18.7219 121.832C18.3699 122.088 17.9299 122.216 17.4019 122.216C16.8659 122.216 16.4179 122.088 16.0579 121.832C15.7059 121.576 15.4219 121.24 15.2059 120.824C14.9899 120.4 14.8379 119.924 14.7499 119.396C14.6619 118.86 14.6179 118.316 14.6179 117.764C14.6179 117.212 14.6619 116.668 14.7499 116.132C14.8379 115.596 14.9899 115.12 15.2059 114.704C15.4219 114.28 15.7059 113.94 16.0579 113.684C16.4179 113.42 16.8659 113.288 17.4019 113.288ZM17.4019 114.02C17.0259 114.02 16.7139 114.136 16.4659 114.368C16.2179 114.6 16.0219 114.896 15.8779 115.256C15.7339 115.616 15.6339 116.02 15.5779 116.468C15.5219 116.908 15.4939 117.34 15.4939 117.764C15.4939 118.188 15.5219 118.62 15.5779 119.06C15.6339 119.5 15.7339 119.9 15.8779 120.26C16.0219 120.612 16.2179 120.904 16.4659 121.136C16.7139 121.36 17.0259 121.472 17.4019 121.472C17.7699 121.472 18.0779 121.36 18.3259 121.136C18.5739 120.904 18.7699 120.612 18.9139 120.26C19.0579 119.9 19.1579 119.5 19.2139 119.06C19.2779 118.62 19.3099 118.188 19.3099 117.764C19.3099 117.34 19.2779 116.908 19.2139 116.468C19.1579 116.02 19.0579 115.616 18.9139 115.256C18.7699 114.896 18.5739 114.6 18.3259 114.368C18.0779 114.136 17.7699 114.02 17.4019 114.02ZM24.3628 113.288C24.8908 113.288 25.3308 113.42 25.6828 113.684C26.0428 113.94 26.3308 114.28 26.5468 114.704C26.7628 115.12 26.9148 115.596 27.0028 116.132C27.0988 116.668 27.1468 117.212 27.1468 117.764C27.1468 118.316 27.0988 118.86 27.0028 119.396C26.9148 119.924 26.7628 120.4 26.5468 120.824C26.3308 121.24 26.0428 121.576 25.6828 121.832C25.3308 122.088 24.8908 122.216 24.3628 122.216C23.8268 122.216 23.3788 122.088 23.0188 121.832C22.6668 121.576 22.3828 121.24 22.1668 120.824C21.9508 120.4 21.7988 119.924 21.7108 119.396C21.6228 118.86 21.5788 118.316 21.5788 117.764C21.5788 117.212 21.6228 116.668 21.7108 116.132C21.7988 115.596 21.9508 115.12 22.1668 114.704C22.3828 114.28 22.6668 113.94 23.0188 113.684C23.3788 113.42 23.8268 113.288 24.3628 113.288ZM24.3628 114.02C23.9868 114.02 23.6748 114.136 23.4268 114.368C23.1788 114.6 22.9828 114.896 22.8388 115.256C22.6948 115.616 22.5948 116.02 22.5388 116.468C22.4828 116.908 22.4548 117.34 22.4548 117.764C22.4548 118.188 22.4828 118.62 22.5388 119.06C22.5948 119.5 22.6948 119.9 22.8388 120.26C22.9828 120.612 23.1788 120.904 23.4268 121.136C23.6748 121.36 23.9868 121.472 24.3628 121.472C24.7308 121.472 25.0388 121.36 25.2868 121.136C25.5348 120.904 25.7308 120.612 25.8748 120.26C26.0188 119.9 26.1188 119.5 26.1748 119.06C26.2388 118.62 26.2708 118.188 26.2708 117.764C26.2708 117.34 26.2388 116.908 26.1748 116.468C26.1188 116.02 26.0188 115.616 25.8748 115.256C25.7308 114.896 25.5348 114.6 25.2868 114.368C25.0388 114.136 24.7308 114.02 24.3628 114.02Z" fill="#808080"/>
<path d="M3.48 168.288C4.008 168.288 4.448 168.42 4.8 168.684C5.16 168.94 5.448 169.28 5.664 169.704C5.88 170.12 6.032 170.596 6.12 171.132C6.216 171.668 6.264 172.212 6.264 172.764C6.264 173.316 6.216 173.86 6.12 174.396C6.032 174.924 5.88 175.4 5.664 175.824C5.448 176.24 5.16 176.576 4.8 176.832C4.448 177.088 4.008 177.216 3.48 177.216C2.944 177.216 2.496 177.088 2.136 176.832C1.784 176.576 1.5 176.24 1.284 175.824C1.068 175.4 0.916 174.924 0.828 174.396C0.74 173.86 0.696 173.316 0.696 172.764C0.696 172.212 0.74 171.668 0.828 171.132C0.916 170.596 1.068 170.12 1.284 169.704C1.5 169.28 1.784 168.94 2.136 168.684C2.496 168.42 2.944 168.288 3.48 168.288ZM3.48 169.02C3.104 169.02 2.792 169.136 2.544 169.368C2.296 169.6 2.1 169.896 1.956 170.256C1.812 170.616 1.712 171.02 1.656 171.468C1.6 171.908 1.572 172.34 1.572 172.764C1.572 173.188 1.6 173.62 1.656 174.06C1.712 174.5 1.812 174.9 1.956 175.26C2.1 175.612 2.296 175.904 2.544 176.136C2.792 176.36 3.104 176.472 3.48 176.472C3.848 176.472 4.156 176.36 4.404 176.136C4.652 175.904 4.848 175.612 4.992 175.26C5.136 174.9 5.236 174.5 5.292 174.06C5.356 173.62 5.388 173.188 5.388 172.764C5.388 172.34 5.356 171.908 5.292 171.468C5.236 171.02 5.136 170.616 4.992 170.256C4.848 169.896 4.652 169.6 4.404 169.368C4.156 169.136 3.848 169.02 3.48 169.02ZM12.1929 174.192H13.4409V174.948H12.1929V177H11.3529V174.948H7.46494V174.108L11.0649 168.504H12.1929V174.192ZM11.3529 169.476H11.3289L8.36494 174.192H11.3529V169.476ZM17.4019 168.288C17.9299 168.288 18.3699 168.42 18.7219 168.684C19.0819 168.94 19.3699 169.28 19.5859 169.704C19.8019 170.12 19.9539 170.596 20.0419 171.132C20.1379 171.668 20.1859 172.212 20.1859 172.764C20.1859 173.316 20.1379 173.86 20.0419 174.396C19.9539 174.924 19.8019 175.4 19.5859 175.824C19.3699 176.24 19.0819 176.576 18.7219 176.832C18.3699 177.088 17.9299 177.216 17.4019 177.216C16.8659 177.216 16.4179 177.088 16.0579 176.832C15.7059 176.576 15.4219 176.24 15.2059 175.824C14.9899 175.4 14.8379 174.924 14.7499 174.396C14.6619 173.86 14.6179 173.316 14.6179 172.764C14.6179 172.212 14.6619 171.668 14.7499 171.132C14.8379 170.596 14.9899 170.12 15.2059 169.704C15.4219 169.28 15.7059 168.94 16.0579 168.684C16.4179 168.42 16.8659 168.288 17.4019 168.288ZM17.4019 169.02C17.0259 169.02 16.7139 169.136 16.4659 169.368C16.2179 169.6 16.0219 169.896 15.8779 170.256C15.7339 170.616 15.6339 171.02 15.5779 171.468C15.5219 171.908 15.4939 172.34 15.4939 172.764C15.4939 173.188 15.5219 173.62 15.5779 174.06C15.6339 174.5 15.7339 174.9 15.8779 175.26C16.0219 175.612 16.2179 175.904 16.4659 176.136C16.7139 176.36 17.0259 176.472 17.4019 176.472C17.7699 176.472 18.0779 176.36 18.3259 176.136C18.5739 175.904 18.7699 175.612 18.9139 175.26C19.0579 174.9 19.1579 174.5 19.2139 174.06C19.2779 173.62 19.3099 173.188 19.3099 172.764C19.3099 172.34 19.2779 171.908 19.2139 171.468C19.1579 171.02 19.0579 170.616 18.9139 170.256C18.7699 169.896 18.5739 169.6 18.3259 169.368C18.0779 169.136 17.7699 169.02 17.4019 169.02ZM24.3628 168.288C24.8908 168.288 25.3308 168.42 25.6828 168.684C26.0428 168.94 26.3308 169.28 26.5468 169.704C26.7628 170.12 26.9148 170.596 27.0028 171.132C27.0988 171.668 27.1468 172.212 27.1468 172.764C27.1468 173.316 27.0988 173.86 27.0028 174.396C26.9148 174.924 26.7628 175.4 26.5468 175.824C26.3308 176.24 26.0428 176.576 25.6828 176.832C25.3308 177.088 24.8908 177.216 24.3628 177.216C23.8268 177.216 23.3788 177.088 23.0188 176.832C22.6668 176.576 22.3828 176.24 22.1668 175.824C21.9508 175.4 21.7988 174.924 21.7108 174.396C21.6228 173.86 21.5788 173.316 21.5788 172.764C21.5788 172.212 21.6228 171.668 21.7108 171.132C21.7988 170.596 21.9508 170.12 22.1668 169.704C22.3828 169.28 22.6668 168.94 23.0188 168.684C23.3788 168.42 23.8268 168.288 24.3628 168.288ZM24.3628 169.02C23.9868 169.02 23.6748 169.136 23.4268 169.368C23.1788 169.6 22.9828 169.896 22.8388 170.256C22.6948 170.616 22.5948 171.02 22.5388 171.468C22.4828 171.908 22.4548 172.34 22.4548 172.764C22.4548 173.188 22.4828 173.62 22.5388 174.06C22.5948 174.5 22.6948 174.9 22.8388 175.26C22.9828 175.612 23.1788 175.904 23.4268 176.136C23.6748 176.36 23.9868 176.472 24.3628 176.472C24.7308 176.472 25.0388 176.36 25.2868 176.136C25.5348 175.904 25.7308 175.612 25.8748 175.26C26.0188 174.9 26.1188 174.5 26.1748 174.06C26.2388 173.62 26.2708 173.188 26.2708 172.764C26.2708 172.34 26.2388 171.908 26.1748 171.468C26.1188 171.02 26.0188 170.616 25.8748 170.256C25.7308 169.896 25.5348 169.6 25.2868 169.368C25.0388 169.136 24.7308 169.02 24.3628 169.02Z" fill="#808080"/>
<path d="M3.48 223.288C4.008 223.288 4.448 223.42 4.8 223.684C5.16 223.94 5.448 224.28 5.664 224.704C5.88 225.12 6.032 225.596 6.12 226.132C6.216 226.668 6.264 227.212 6.264 227.764C6.264 228.316 6.216 228.86 6.12 229.396C6.032 229.924 5.88 230.4 5.664 230.824C5.448 231.24 5.16 231.576 4.8 231.832C4.448 232.088 4.008 232.216 3.48 232.216C2.944 232.216 2.496 232.088 2.136 231.832C1.784 231.576 1.5 231.24 1.284 230.824C1.068 230.4 0.916 229.924 0.828 229.396C0.74 228.86 0.696 228.316 0.696 227.764C0.696 227.212 0.74 226.668 0.828 226.132C0.916 225.596 1.068 225.12 1.284 224.704C1.5 224.28 1.784 223.94 2.136 223.684C2.496 223.42 2.944 223.288 3.48 223.288ZM3.48 224.02C3.104 224.02 2.792 224.136 2.544 224.368C2.296 224.6 2.1 224.896 1.956 225.256C1.812 225.616 1.712 226.02 1.656 226.468C1.6 226.908 1.572 227.34 1.572 227.764C1.572 228.188 1.6 228.62 1.656 229.06C1.712 229.5 1.812 229.9 1.956 230.26C2.1 230.612 2.296 230.904 2.544 231.136C2.792 231.36 3.104 231.472 3.48 231.472C3.848 231.472 4.156 231.36 4.404 231.136C4.652 230.904 4.848 230.612 4.992 230.26C5.136 229.9 5.236 229.5 5.292 229.06C5.356 228.62 5.388 228.188 5.388 227.764C5.388 227.34 5.356 226.908 5.292 226.468C5.236 226.02 5.136 225.616 4.992 225.256C4.848 224.896 4.652 224.6 4.404 224.368C4.156 224.136 3.848 224.02 3.48 224.02ZM9.37294 227.212L9.39694 227.236C9.52494 227.14 9.70494 227.064 9.93694 227.008C10.1689 226.952 10.3929 226.924 10.6089 226.924C10.9769 226.924 11.3169 226.988 11.6289 227.116C11.9489 227.244 12.2249 227.424 12.4569 227.656C12.6889 227.88 12.8689 228.156 12.9969 228.484C13.1329 228.804 13.2009 229.156 13.2009 229.54C13.2009 229.94 13.1329 230.304 12.9969 230.632C12.8609 230.96 12.6689 231.24 12.4209 231.472C12.1729 231.704 11.8809 231.884 11.5449 232.012C11.2089 232.148 10.8409 232.216 10.4409 232.216C10.0409 232.216 9.67294 232.148 9.33694 232.012C9.00094 231.884 8.70894 231.704 8.46094 231.472C8.21294 231.24 8.02094 230.96 7.88494 230.632C7.74894 230.304 7.68094 229.94 7.68094 229.54C7.68094 229.1 7.75694 228.692 7.90894 228.316C8.06094 227.94 8.24094 227.58 8.44894 227.236L10.7649 223.504H11.7609L9.37294 227.212ZM8.54494 229.54C8.54494 229.82 8.58894 230.08 8.67694 230.32C8.77294 230.552 8.90494 230.756 9.07294 230.932C9.24094 231.1 9.44094 231.236 9.67294 231.34C9.90494 231.436 10.1609 231.484 10.4409 231.484C10.7209 231.484 10.9769 231.436 11.2089 231.34C11.4409 231.236 11.6409 231.1 11.8089 230.932C11.9769 230.756 12.1049 230.552 12.1929 230.32C12.2889 230.08 12.3369 229.82 12.3369 229.54C12.3369 229.268 12.2929 229.016 12.2049 228.784C12.1169 228.544 11.9889 228.34 11.8209 228.172C11.6609 227.996 11.4609 227.86 11.2209 227.764C10.9889 227.668 10.7289 227.62 10.4409 227.62C10.1529 227.62 9.88894 227.668 9.64894 227.764C9.41694 227.86 9.21694 227.996 9.04894 228.172C8.88894 228.34 8.76494 228.544 8.67694 228.784C8.58894 229.016 8.54494 229.268 8.54494 229.54ZM17.4019 223.288C17.9299 223.288 18.3699 223.42 18.7219 223.684C19.0819 223.94 19.3699 224.28 19.5859 224.704C19.8019 225.12 19.9539 225.596 20.0419 226.132C20.1379 226.668 20.1859 227.212 20.1859 227.764C20.1859 228.316 20.1379 228.86 20.0419 229.396C19.9539 229.924 19.8019 230.4 19.5859 230.824C19.3699 231.24 19.0819 231.576 18.7219 231.832C18.3699 232.088 17.9299 232.216 17.4019 232.216C16.8659 232.216 16.4179 232.088 16.0579 231.832C15.7059 231.576 15.4219 231.24 15.2059 230.824C14.9899 230.4 14.8379 229.924 14.7499 229.396C14.6619 228.86 14.6179 228.316 14.6179 227.764C14.6179 227.212 14.6619 226.668 14.7499 226.132C14.8379 225.596 14.9899 225.12 15.2059 224.704C15.4219 224.28 15.7059 223.94 16.0579 223.684C16.4179 223.42 16.8659 223.288 17.4019 223.288ZM17.4019 224.02C17.0259 224.02 16.7139 224.136 16.4659 224.368C16.2179 224.6 16.0219 224.896 15.8779 225.256C15.7339 225.616 15.6339 226.02 15.5779 226.468C15.5219 226.908 15.4939 227.34 15.4939 227.764C15.4939 228.188 15.5219 228.62 15.5779 229.06C15.6339 229.5 15.7339 229.9 15.8779 230.26C16.0219 230.612 16.2179 230.904 16.4659 231.136C16.7139 231.36 17.0259 231.472 17.4019 231.472C17.7699 231.472 18.0779 231.36 18.3259 231.136C18.5739 230.904 18.7699 230.612 18.9139 230.26C19.0579 229.9 19.1579 229.5 19.2139 229.06C19.2779 228.62 19.3099 228.188 19.3099 227.764C19.3099 227.34 19.2779 226.908 19.2139 226.468C19.1579 226.02 19.0579 225.616 18.9139 225.256C18.7699 224.896 18.5739 224.6 18.3259 224.368C18.0779 224.136 17.7699 224.02 17.4019 224.02ZM24.3628 223.288C24.8908 223.288 25.3308 223.42 25.6828 223.684C26.0428 223.94 26.3308 224.28 26.5468 224.704C26.7628 225.12 26.9148 225.596 27.0028 226.132C27.0988 226.668 27.1468 227.212 27.1468 227.764C27.1468 228.316 27.0988 228.86 27.0028 229.396C26.9148 229.924 26.7628 230.4 26.5468 230.824C26.3308 231.24 26.0428 231.576 25.6828 231.832C25.3308 232.088 24.8908 232.216 24.3628 232.216C23.8268 232.216 23.3788 232.088 23.0188 231.832C22.6668 231.576 22.3828 231.24 22.1668 230.824C21.9508 230.4 21.7988 229.924 21.7108 229.396C21.6228 228.86 21.5788 228.316 21.5788 227.764C21.5788 227.212 21.6228 226.668 21.7108 226.132C21.7988 225.596 21.9508 225.12 22.1668 224.704C22.3828 224.28 22.6668 223.94 23.0188 223.684C23.3788 223.42 23.8268 223.288 24.3628 223.288ZM24.3628 224.02C23.9868 224.02 23.6748 224.136 23.4268 224.368C23.1788 224.6 22.9828 224.896 22.8388 225.256C22.6948 225.616 22.5948 226.02 22.5388 226.468C22.4828 226.908 22.4548 227.34 22.4548 227.764C22.4548 228.188 22.4828 228.62 22.5388 229.06C22.5948 229.5 22.6948 229.9 22.8388 230.26C22.9828 230.612 23.1788 230.904 23.4268 231.136C23.6748 231.36 23.9868 231.472 24.3628 231.472C24.7308 231.472 25.0388 231.36 25.2868 231.136C25.5348 230.904 25.7308 230.612 25.8748 230.26C26.0188 229.9 26.1188 229.5 26.1748 229.06C26.2388 228.62 26.2708 228.188 26.2708 227.764C26.2708 227.34 26.2388 226.908 26.1748 226.468C26.1188 226.02 26.0188 225.616 25.8748 225.256C25.7308 224.896 25.5348 224.6 25.2868 224.368C25.0388 224.136 24.7308 224.02 24.3628 224.02Z" fill="#808080"/>
<path d="M3.48 278.288C4.008 278.288 4.448 278.42 4.8 278.684C5.16 278.94 5.448 279.28 5.664 279.704C5.88 280.12 6.032 280.596 6.12 281.132C6.216 281.668 6.264 282.212 6.264 282.764C6.264 283.316 6.216 283.86 6.12 284.396C6.032 284.924 5.88 285.4 5.664 285.824C5.448 286.24 5.16 286.576 4.8 286.832C4.448 287.088 4.008 287.216 3.48 287.216C2.944 287.216 2.496 287.088 2.136 286.832C1.784 286.576 1.5 286.24 1.284 285.824C1.068 285.4 0.916 284.924 0.828 284.396C0.74 283.86 0.696 283.316 0.696 282.764C0.696 282.212 0.74 281.668 0.828 281.132C0.916 280.596 1.068 280.12 1.284 279.704C1.5 279.28 1.784 278.94 2.136 278.684C2.496 278.42 2.944 278.288 3.48 278.288ZM3.48 279.02C3.104 279.02 2.792 279.136 2.544 279.368C2.296 279.6 2.1 279.896 1.956 280.256C1.812 280.616 1.712 281.02 1.656 281.468C1.6 281.908 1.572 282.34 1.572 282.764C1.572 283.188 1.6 283.62 1.656 284.06C1.712 284.5 1.812 284.9 1.956 285.26C2.1 285.612 2.296 285.904 2.544 286.136C2.792 286.36 3.104 286.472 3.48 286.472C3.848 286.472 4.156 286.36 4.404 286.136C4.652 285.904 4.848 285.612 4.992 285.26C5.136 284.9 5.236 284.5 5.292 284.06C5.356 283.62 5.388 283.188 5.388 282.764C5.388 282.34 5.356 281.908 5.292 281.468C5.236 281.02 5.136 280.616 4.992 280.256C4.848 279.896 4.652 279.6 4.404 279.368C4.156 279.136 3.848 279.02 3.48 279.02ZM11.5569 282.5C12.0209 282.636 12.4049 282.904 12.7089 283.304C13.0129 283.704 13.1649 284.192 13.1649 284.768C13.1649 285.144 13.0889 285.484 12.9369 285.788C12.7929 286.084 12.5969 286.34 12.3489 286.556C12.1009 286.764 11.8089 286.924 11.4729 287.036C11.1449 287.156 10.8009 287.216 10.4409 287.216C10.0809 287.216 9.73294 287.156 9.39694 287.036C9.06894 286.924 8.78094 286.764 8.53294 286.556C8.28494 286.34 8.08494 286.084 7.93294 285.788C7.78894 285.484 7.71694 285.144 7.71694 284.768C7.71694 284.48 7.75694 284.216 7.83694 283.976C7.91694 283.728 8.02894 283.508 8.17294 283.316C8.31694 283.116 8.48494 282.948 8.67694 282.812C8.87694 282.676 9.09294 282.572 9.32494 282.5V282.476C9.13294 282.412 8.95694 282.32 8.79694 282.2C8.64494 282.072 8.51294 281.924 8.40094 281.756C8.28894 281.58 8.20094 281.392 8.13694 281.192C8.07294 280.984 8.04094 280.772 8.04094 280.556C8.04094 280.212 8.10494 279.9 8.23294 279.62C8.36094 279.34 8.53294 279.104 8.74894 278.912C8.97294 278.712 9.22894 278.56 9.51694 278.456C9.80494 278.344 10.1129 278.288 10.4409 278.288C10.7609 278.288 11.0649 278.344 11.3529 278.456C11.6489 278.56 11.9049 278.712 12.1209 278.912C12.3449 279.104 12.5209 279.34 12.6489 279.62C12.7769 279.9 12.8409 280.212 12.8409 280.556C12.8409 280.772 12.8089 280.984 12.7449 281.192C12.6809 281.392 12.5929 281.58 12.4809 281.756C12.3689 281.924 12.2329 282.072 12.0729 282.2C11.9209 282.32 11.7489 282.412 11.5569 282.476V282.5ZM8.88094 280.604C8.88094 280.828 8.92094 281.032 9.00094 281.216C9.08094 281.4 9.19294 281.56 9.33694 281.696C9.48094 281.832 9.64494 281.94 9.82894 282.02C10.0209 282.092 10.2249 282.128 10.4409 282.128C10.6569 282.128 10.8569 282.092 11.0409 282.02C11.2329 281.94 11.4009 281.832 11.5449 281.696C11.6889 281.56 11.8009 281.4 11.8809 281.216C11.9609 281.032 12.0009 280.828 12.0009 280.604C12.0009 280.38 11.9609 280.172 11.8809 279.98C11.8009 279.78 11.6889 279.612 11.5449 279.476C11.4089 279.332 11.2449 279.22 11.0529 279.14C10.8689 279.06 10.6649 279.02 10.4409 279.02C10.2169 279.02 10.0089 279.06 9.81694 279.14C9.63294 279.22 9.46894 279.332 9.32494 279.476C9.18894 279.612 9.08094 279.78 9.00094 279.98C8.92094 280.172 8.88094 280.38 8.88094 280.604ZM8.58094 284.672C8.58094 284.928 8.62494 285.168 8.71294 285.392C8.80094 285.616 8.92494 285.808 9.08494 285.968C9.25294 286.128 9.44894 286.256 9.67294 286.352C9.90494 286.44 10.1609 286.484 10.4409 286.484C10.7209 286.484 10.9729 286.44 11.1969 286.352C11.4289 286.256 11.6249 286.128 11.7849 285.968C11.9529 285.808 12.0809 285.616 12.1689 285.392C12.2569 285.168 12.3009 284.928 12.3009 284.672C12.3009 284.416 12.2569 284.18 12.1689 283.964C12.0809 283.748 11.9529 283.56 11.7849 283.4C11.6249 283.24 11.4289 283.116 11.1969 283.028C10.9729 282.94 10.7209 282.896 10.4409 282.896C10.1609 282.896 9.90494 282.94 9.67294 283.028C9.44894 283.116 9.25294 283.24 9.08494 283.4C8.92494 283.56 8.80094 283.748 8.71294 283.964C8.62494 284.18 8.58094 284.416 8.58094 284.672ZM17.4019 278.288C17.9299 278.288 18.3699 278.42 18.7219 278.684C19.0819 278.94 19.3699 279.28 19.5859 279.704C19.8019 280.12 19.9539 280.596 20.0419 281.132C20.1379 281.668 20.1859 282.212 20.1859 282.764C20.1859 283.316 20.1379 283.86 20.0419 284.396C19.9539 284.924 19.8019 285.4 19.5859 285.824C19.3699 286.24 19.0819 286.576 18.7219 286.832C18.3699 287.088 17.9299 287.216 17.4019 287.216C16.8659 287.216 16.4179 287.088 16.0579 286.832C15.7059 286.576 15.4219 286.24 15.2059 285.824C14.9899 285.4 14.8379 284.924 14.7499 284.396C14.6619 283.86 14.6179 283.316 14.6179 282.764C14.6179 282.212 14.6619 281.668 14.7499 281.132C14.8379 280.596 14.9899 280.12 15.2059 279.704C15.4219 279.28 15.7059 278.94 16.0579 278.684C16.4179 278.42 16.8659 278.288 17.4019 278.288ZM17.4019 279.02C17.0259 279.02 16.7139 279.136 16.4659 279.368C16.2179 279.6 16.0219 279.896 15.8779 280.256C15.7339 280.616 15.6339 281.02 15.5779 281.468C15.5219 281.908 15.4939 282.34 15.4939 282.764C15.4939 283.188 15.5219 283.62 15.5779 284.06C15.6339 284.5 15.7339 284.9 15.8779 285.26C16.0219 285.612 16.2179 285.904 16.4659 286.136C16.7139 286.36 17.0259 286.472 17.4019 286.472C17.7699 286.472 18.0779 286.36 18.3259 286.136C18.5739 285.904 18.7699 285.612 18.9139 285.26C19.0579 284.9 19.1579 284.5 19.2139 284.06C19.2779 283.62 19.3099 283.188 19.3099 282.764C19.3099 282.34 19.2779 281.908 19.2139 281.468C19.1579 281.02 19.0579 280.616 18.9139 280.256C18.7699 279.896 18.5739 279.6 18.3259 279.368C18.0779 279.136 17.7699 279.02 17.4019 279.02ZM24.3628 278.288C24.8908 278.288 25.3308 278.42 25.6828 278.684C26.0428 278.94 26.3308 279.28 26.5468 279.704C26.7628 280.12 26.9148 280.596 27.0028 281.132C27.0988 281.668 27.1468 282.212 27.1468 282.764C27.1468 283.316 27.0988 283.86 27.0028 284.396C26.9148 284.924 26.7628 285.4 26.5468 285.824C26.3308 286.24 26.0428 286.576 25.6828 286.832C25.3308 287.088 24.8908 287.216 24.3628 287.216C23.8268 287.216 23.3788 287.088 23.0188 286.832C22.6668 286.576 22.3828 286.24 22.1668 285.824C21.9508 285.4 21.7988 284.924 21.7108 284.396C21.6228 283.86 21.5788 283.316 21.5788 282.764C21.5788 282.212 21.6228 281.668 21.7108 281.132C21.7988 280.596 21.9508 280.12 22.1668 279.704C22.3828 279.28 22.6668 278.94 23.0188 278.684C23.3788 278.42 23.8268 278.288 24.3628 278.288ZM24.3628 279.02C23.9868 279.02 23.6748 279.136 23.4268 279.368C23.1788 279.6 22.9828 279.896 22.8388 280.256C22.6948 280.616 22.5948 281.02 22.5388 281.468C22.4828 281.908 22.4548 282.34 22.4548 282.764C22.4548 283.188 22.4828 283.62 22.5388 284.06C22.5948 284.5 22.6948 284.9 22.8388 285.26C22.9828 285.612 23.1788 285.904 23.4268 286.136C23.6748 286.36 23.9868 286.472 24.3628 286.472C24.7308 286.472 25.0388 286.36 25.2868 286.136C25.5348 285.904 25.7308 285.612 25.8748 285.26C26.0188 284.9 26.1188 284.5 26.1748 284.06C26.2388 283.62 26.2708 283.188 26.2708 282.764C26.2708 282.34 26.2388 281.908 26.1748 281.468C26.1188 281.02 26.0188 280.616 25.8748 280.256C25.7308 279.896 25.5348 279.6 25.2868 279.368C25.0388 279.136 24.7308 279.02 24.3628 279.02Z" fill="#808080"/>
<path d="M4.296 342H3.432V334.572L1.896 335.88L1.368 335.28L3.528 333.504H4.296V342ZM10.4409 333.288C10.9689 333.288 11.4089 333.42 11.7609 333.684C12.1209 333.94 12.4089 334.28 12.6249 334.704C12.8409 335.12 12.9929 335.596 13.0809 336.132C13.1769 336.668 13.2249 337.212 13.2249 337.764C13.2249 338.316 13.1769 338.86 13.0809 339.396C12.9929 339.924 12.8409 340.4 12.6249 340.824C12.4089 341.24 12.1209 341.576 11.7609 341.832C11.4089 342.088 10.9689 342.216 10.4409 342.216C9.90494 342.216 9.45694 342.088 9.09694 341.832C8.74494 341.576 8.46094 341.24 8.24494 340.824C8.02894 340.4 7.87694 339.924 7.78894 339.396C7.70094 338.86 7.65694 338.316 7.65694 337.764C7.65694 337.212 7.70094 336.668 7.78894 336.132C7.87694 335.596 8.02894 335.12 8.24494 334.704C8.46094 334.28 8.74494 333.94 9.09694 333.684C9.45694 333.42 9.90494 333.288 10.4409 333.288ZM10.4409 334.02C10.0649 334.02 9.75294 334.136 9.50494 334.368C9.25694 334.6 9.06094 334.896 8.91694 335.256C8.77294 335.616 8.67294 336.02 8.61694 336.468C8.56094 336.908 8.53294 337.34 8.53294 337.764C8.53294 338.188 8.56094 338.62 8.61694 339.06C8.67294 339.5 8.77294 339.9 8.91694 340.26C9.06094 340.612 9.25694 340.904 9.50494 341.136C9.75294 341.36 10.0649 341.472 10.4409 341.472C10.8089 341.472 11.1169 341.36 11.3649 341.136C11.6129 340.904 11.8089 340.612 11.9529 340.26C12.0969 339.9 12.1969 339.5 12.2529 339.06C12.3169 338.62 12.3489 338.188 12.3489 337.764C12.3489 337.34 12.3169 336.908 12.2529 336.468C12.1969 336.02 12.0969 335.616 11.9529 335.256C11.8089 334.896 11.6129 334.6 11.3649 334.368C11.1169 334.136 10.8089 334.02 10.4409 334.02ZM17.4019 333.288C17.9299 333.288 18.3699 333.42 18.7219 333.684C19.0819 333.94 19.3699 334.28 19.5859 334.704C19.8019 335.12 19.9539 335.596 20.0419 336.132C20.1379 336.668 20.1859 337.212 20.1859 337.764C20.1859 338.316 20.1379 338.86 20.0419 339.396C19.9539 339.924 19.8019 340.4 19.5859 340.824C19.3699 341.24 19.0819 341.576 18.7219 341.832C18.3699 342.088 17.9299 342.216 17.4019 342.216C16.8659 342.216 16.4179 342.088 16.0579 341.832C15.7059 341.576 15.4219 341.24 15.2059 340.824C14.9899 340.4 14.8379 339.924 14.7499 339.396C14.6619 338.86 14.6179 338.316 14.6179 337.764C14.6179 337.212 14.6619 336.668 14.7499 336.132C14.8379 335.596 14.9899 335.12 15.2059 334.704C15.4219 334.28 15.7059 333.94 16.0579 333.684C16.4179 333.42 16.8659 333.288 17.4019 333.288ZM17.4019 334.02C17.0259 334.02 16.7139 334.136 16.4659 334.368C16.2179 334.6 16.0219 334.896 15.8779 335.256C15.7339 335.616 15.6339 336.02 15.5779 336.468C15.5219 336.908 15.4939 337.34 15.4939 337.764C15.4939 338.188 15.5219 338.62 15.5779 339.06C15.6339 339.5 15.7339 339.9 15.8779 340.26C16.0219 340.612 16.2179 340.904 16.4659 341.136C16.7139 341.36 17.0259 341.472 17.4019 341.472C17.7699 341.472 18.0779 341.36 18.3259 341.136C18.5739 340.904 18.7699 340.612 18.9139 340.26C19.0579 339.9 19.1579 339.5 19.2139 339.06C19.2779 338.62 19.3099 338.188 19.3099 337.764C19.3099 337.34 19.2779 336.908 19.2139 336.468C19.1579 336.02 19.0579 335.616 18.9139 335.256C18.7699 334.896 18.5739 334.6 18.3259 334.368C18.0779 334.136 17.7699 334.02 17.4019 334.02ZM24.3628 333.288C24.8908 333.288 25.3308 333.42 25.6828 333.684C26.0428 333.94 26.3308 334.28 26.5468 334.704C26.7628 335.12 26.9148 335.596 27.0028 336.132C27.0988 336.668 27.1468 337.212 27.1468 337.764C27.1468 338.316 27.0988 338.86 27.0028 339.396C26.9148 339.924 26.7628 340.4 26.5468 340.824C26.3308 341.24 26.0428 341.576 25.6828 341.832C25.3308 342.088 24.8908 342.216 24.3628 342.216C23.8268 342.216 23.3788 342.088 23.0188 341.832C22.6668 341.576 22.3828 341.24 22.1668 340.824C21.9508 340.4 21.7988 339.924 21.7108 339.396C21.6228 338.86 21.5788 338.316 21.5788 337.764C21.5788 337.212 21.6228 336.668 21.7108 336.132C21.7988 335.596 21.9508 335.12 22.1668 334.704C22.3828 334.28 22.6668 333.94 23.0188 333.684C23.3788 333.42 23.8268 333.288 24.3628 333.288ZM24.3628 334.02C23.9868 334.02 23.6748 334.136 23.4268 334.368C23.1788 334.6 22.9828 334.896 22.8388 335.256C22.6948 335.616 22.5948 336.02 22.5388 336.468C22.4828 336.908 22.4548 337.34 22.4548 337.764C22.4548 338.188 22.4828 338.62 22.5388 339.06C22.5948 339.5 22.6948 339.9 22.8388 340.26C22.9828 340.612 23.1788 340.904 23.4268 341.136C23.6748 341.36 23.9868 341.472 24.3628 341.472C24.7308 341.472 25.0388 341.36 25.2868 341.136C25.5348 340.904 25.7308 340.612 25.8748 340.26C26.0188 339.9 26.1188 339.5 26.1748 339.06C26.2388 338.62 26.2708 338.188 26.2708 337.764C26.2708 337.34 26.2388 336.908 26.1748 336.468C26.1188 336.02 26.0188 335.616 25.8748 335.256C25.7308 334.896 25.5348 334.6 25.2868 334.368C25.0388 334.136 24.7308 334.02 24.3628 334.02Z" fill="#808080"/>
<path d="M4.296 397H3.432V389.572L1.896 390.88L1.368 390.28L3.528 388.504H4.296V397ZM13.0089 397H7.57294V396.1L11.0529 392.584C11.1809 392.456 11.3049 392.32 11.4249 392.176C11.5529 392.024 11.6649 391.868 11.7609 391.708C11.8569 391.548 11.9329 391.38 11.9889 391.204C12.0449 391.02 12.0729 390.832 12.0729 390.64C12.0729 390.392 12.0289 390.168 11.9409 389.968C11.8529 389.768 11.7289 389.6 11.5689 389.464C11.4169 389.32 11.2369 389.212 11.0289 389.14C10.8289 389.06 10.6169 389.02 10.3929 389.02C9.93694 389.02 9.55294 389.164 9.24094 389.452C8.92894 389.732 8.72894 390.092 8.64094 390.532L7.78894 390.364C7.84494 390.068 7.94894 389.792 8.10094 389.536C8.26094 389.28 8.45294 389.06 8.67694 388.876C8.90894 388.692 9.16894 388.548 9.45694 388.444C9.74494 388.34 10.0569 388.288 10.3929 388.288C10.7369 388.288 11.0609 388.34 11.3649 388.444C11.6769 388.54 11.9489 388.688 12.1809 388.888C12.4129 389.08 12.5969 389.324 12.7329 389.62C12.8769 389.908 12.9489 390.244 12.9489 390.628C12.9489 390.9 12.9089 391.152 12.8289 391.384C12.7569 391.616 12.6569 391.836 12.5289 392.044C12.4089 392.252 12.2649 392.452 12.0969 392.644C11.9289 392.828 11.7529 393.012 11.5689 393.196L8.50894 396.232H13.0089V397ZM17.4019 388.288C17.9299 388.288 18.3699 388.42 18.7219 388.684C19.0819 388.94 19.3699 389.28 19.5859 389.704C19.8019 390.12 19.9539 390.596 20.0419 391.132C20.1379 391.668 20.1859 392.212 20.1859 392.764C20.1859 393.316 20.1379 393.86 20.0419 394.396C19.9539 394.924 19.8019 395.4 19.5859 395.824C19.3699 396.24 19.0819 396.576 18.7219 396.832C18.3699 397.088 17.9299 397.216 17.4019 397.216C16.8659 397.216 16.4179 397.088 16.0579 396.832C15.7059 396.576 15.4219 396.24 15.2059 395.824C14.9899 395.4 14.8379 394.924 14.7499 394.396C14.6619 393.86 14.6179 393.316 14.6179 392.764C14.6179 392.212 14.6619 391.668 14.7499 391.132C14.8379 390.596 14.9899 390.12 15.2059 389.704C15.4219 389.28 15.7059 388.94 16.0579 388.684C16.4179 388.42 16.8659 388.288 17.4019 388.288ZM17.4019 389.02C17.0259 389.02 16.7139 389.136 16.4659 389.368C16.2179 389.6 16.0219 389.896 15.8779 390.256C15.7339 390.616 15.6339 391.02 15.5779 391.468C15.5219 391.908 15.4939 392.34 15.4939 392.764C15.4939 393.188 15.5219 393.62 15.5779 394.06C15.6339 394.5 15.7339 394.9 15.8779 395.26C16.0219 395.612 16.2179 395.904 16.4659 396.136C16.7139 396.36 17.0259 396.472 17.4019 396.472C17.7699 396.472 18.0779 396.36 18.3259 396.136C18.5739 395.904 18.7699 395.612 18.9139 395.26C19.0579 394.9 19.1579 394.5 19.2139 394.06C19.2779 393.62 19.3099 393.188 19.3099 392.764C19.3099 392.34 19.2779 391.908 19.2139 391.468C19.1579 391.02 19.0579 390.616 18.9139 390.256C18.7699 389.896 18.5739 389.6 18.3259 389.368C18.0779 389.136 17.7699 389.02 17.4019 389.02ZM24.3628 388.288C24.8908 388.288 25.3308 388.42 25.6828 388.684C26.0428 388.94 26.3308 389.28 26.5468 389.704C26.7628 390.12 26.9148 390.596 27.0028 391.132C27.0988 391.668 27.1468 392.212 27.1468 392.764C27.1468 393.316 27.0988 393.86 27.0028 394.396C26.9148 394.924 26.7628 395.4 26.5468 395.824C26.3308 396.24 26.0428 396.576 25.6828 396.832C25.3308 397.088 24.8908 397.216 24.3628 397.216C23.8268 397.216 23.3788 397.088 23.0188 396.832C22.6668 396.576 22.3828 396.24 22.1668 395.824C21.9508 395.4 21.7988 394.924 21.7108 394.396C21.6228 393.86 21.5788 393.316 21.5788 392.764C21.5788 392.212 21.6228 391.668 21.7108 391.132C21.7988 390.596 21.9508 390.12 22.1668 389.704C22.3828 389.28 22.6668 388.94 23.0188 388.684C23.3788 388.42 23.8268 388.288 24.3628 388.288ZM24.3628 389.02C23.9868 389.02 23.6748 389.136 23.4268 389.368C23.1788 389.6 22.9828 389.896 22.8388 390.256C22.6948 390.616 22.5948 391.02 22.5388 391.468C22.4828 391.908 22.4548 392.34 22.4548 392.764C22.4548 393.188 22.4828 393.62 22.5388 394.06C22.5948 394.5 22.6948 394.9 22.8388 395.26C22.9828 395.612 23.1788 395.904 23.4268 396.136C23.6748 396.36 23.9868 396.472 24.3628 396.472C24.7308 396.472 25.0388 396.36 25.2868 396.136C25.5348 395.904 25.7308 395.612 25.8748 395.26C26.0188 394.9 26.1188 394.5 26.1748 394.06C26.2388 393.62 26.2708 393.188 26.2708 392.764C26.2708 392.34 26.2388 391.908 26.1748 391.468C26.1188 391.02 26.0188 390.616 25.8748 390.256C25.7308 389.896 25.5348 389.6 25.2868 389.368C25.0388 389.136 24.7308 389.02 24.3628 389.02Z" fill="#808080"/>
</svg>
