<svg width="1358" height="580" viewBox="0 0 1358 580" fill="none" xmlns="http://www.w3.org/2000/svg">
<line y1="102" x2="1358" y2="102" stroke="#D9D9D9" stroke-width="2"/>
<line y1="23" x2="1358" y2="23" stroke="#D9D9D9" stroke-width="2"/>
<line y1="181" x2="1358" y2="181" stroke="#D9D9D9" stroke-width="2"/>
<line y1="260" x2="1358" y2="260" stroke="#D9D9D9" stroke-width="2"/>
<line y1="339" x2="1358" y2="339" stroke="#D9D9D9" stroke-width="2"/>
<line y1="418" x2="1358" y2="418" stroke="#D9D9D9" stroke-width="2"/>
<line y1="497" x2="1358" y2="497" stroke="#D9D9D9" stroke-width="2"/>
<line y1="579" x2="1358" y2="579" stroke="#D9D9D9" stroke-width="2"/>
<path d="M8.064 16H0.816V14.8L5.456 10.112C5.62667 9.94133 5.792 9.76 5.952 9.568C6.12267 9.36533 6.272 9.15733 6.4 8.944C6.528 8.73067 6.62933 8.50667 6.704 8.272C6.77867 8.02667 6.816 7.776 6.816 7.52C6.816 7.18933 6.75733 6.89067 6.64 6.624C6.52267 6.35733 6.35733 6.13333 6.144 5.952C5.94133 5.76 5.70133 5.616 5.424 5.52C5.15733 5.41333 4.87467 5.36 4.576 5.36C3.968 5.36 3.456 5.552 3.04 5.936C2.624 6.30933 2.35733 6.78933 2.24 7.376L1.104 7.152C1.17867 6.75733 1.31733 6.38933 1.52 6.048C1.73333 5.70667 1.98933 5.41333 2.288 5.168C2.59733 4.92267 2.944 4.73067 3.328 4.592C3.712 4.45333 4.128 4.384 4.576 4.384C5.03467 4.384 5.46667 4.45333 5.872 4.592C6.288 4.72 6.65067 4.91733 6.96 5.184C7.26933 5.44 7.51467 5.76533 7.696 6.16C7.888 6.544 7.984 6.992 7.984 7.504C7.984 7.86667 7.93067 8.20267 7.824 8.512C7.728 8.82133 7.59467 9.11467 7.424 9.392C7.264 9.66933 7.072 9.936 6.848 10.192C6.624 10.4373 6.38933 10.6827 6.144 10.928L2.064 14.976H8.064V16ZM17.3453 16H10.0973V14.8L14.7373 10.112C14.9079 9.94133 15.0733 9.76 15.2333 9.568C15.4039 9.36533 15.5533 9.15733 15.6813 8.944C15.8093 8.73067 15.9106 8.50667 15.9853 8.272C16.0599 8.02667 16.0973 7.776 16.0973 7.52C16.0973 7.18933 16.0386 6.89067 15.9213 6.624C15.8039 6.35733 15.6386 6.13333 15.4253 5.952C15.2226 5.76 14.9826 5.616 14.7053 5.52C14.4386 5.41333 14.1559 5.36 13.8573 5.36C13.2493 5.36 12.7373 5.552 12.3213 5.936C11.9053 6.30933 11.6386 6.78933 11.5213 7.376L10.3853 7.152C10.4599 6.75733 10.5986 6.38933 10.8013 6.048C11.0146 5.70667 11.2706 5.41333 11.5693 5.168C11.8786 4.92267 12.2253 4.73067 12.6093 4.592C12.9933 4.45333 13.4093 4.384 13.8573 4.384C14.3159 4.384 14.7479 4.45333 15.1533 4.592C15.5693 4.72 15.9319 4.91733 16.2413 5.184C16.5506 5.44 16.7959 5.76533 16.9773 6.16C17.1693 6.544 17.2653 6.992 17.2653 7.504C17.2653 7.86667 17.2119 8.20267 17.1053 8.512C17.0093 8.82133 16.8759 9.11467 16.7053 9.392C16.5453 9.66933 16.3533 9.936 16.1293 10.192C15.9053 10.4373 15.6706 10.6827 15.4253 10.928L11.3453 14.976H17.3453V16ZM23.2025 4.384C23.9065 4.384 24.4932 4.56 24.9625 4.912C25.4425 5.25333 25.8265 5.70667 26.1145 6.272C26.4025 6.82667 26.6052 7.46133 26.7225 8.176C26.8505 8.89067 26.9145 9.616 26.9145 10.352C26.9145 11.088 26.8505 11.8133 26.7225 12.528C26.6052 13.232 26.4025 13.8667 26.1145 14.432C25.8265 14.9867 25.4425 15.4347 24.9625 15.776C24.4932 16.1173 23.9065 16.288 23.2025 16.288C22.4878 16.288 21.8905 16.1173 21.4105 15.776C20.9412 15.4347 20.5625 14.9867 20.2745 14.432C19.9865 13.8667 19.7838 13.232 19.6665 12.528C19.5492 11.8133 19.4905 11.088 19.4905 10.352C19.4905 9.616 19.5492 8.89067 19.6665 8.176C19.7838 7.46133 19.9865 6.82667 20.2745 6.272C20.5625 5.70667 20.9412 5.25333 21.4105 4.912C21.8905 4.56 22.4878 4.384 23.2025 4.384ZM23.2025 5.36C22.7012 5.36 22.2852 5.51467 21.9545 5.824C21.6238 6.13333 21.3625 6.528 21.1705 7.008C20.9785 7.488 20.8452 8.02667 20.7705 8.624C20.6958 9.21067 20.6585 9.78667 20.6585 10.352C20.6585 10.9173 20.6958 11.4933 20.7705 12.08C20.8452 12.6667 20.9785 13.2 21.1705 13.68C21.3625 14.1493 21.6238 14.5387 21.9545 14.848C22.2852 15.1467 22.7012 15.296 23.2025 15.296C23.6932 15.296 24.1038 15.1467 24.4345 14.848C24.7652 14.5387 25.0265 14.1493 25.2185 13.68C25.4105 13.2 25.5438 12.6667 25.6185 12.08C25.7038 11.4933 25.7465 10.9173 25.7465 10.352C25.7465 9.78667 25.7038 9.21067 25.6185 8.624C25.5438 8.02667 25.4105 7.488 25.2185 7.008C25.0265 6.528 24.7652 6.13333 24.4345 5.824C24.1038 5.51467 23.6932 5.36 23.2025 5.36ZM32.4838 4.384C33.1878 4.384 33.7744 4.56 34.2438 4.912C34.7238 5.25333 35.1078 5.70667 35.3958 6.272C35.6838 6.82667 35.8864 7.46133 36.0038 8.176C36.1318 8.89067 36.1958 9.616 36.1958 10.352C36.1958 11.088 36.1318 11.8133 36.0038 12.528C35.8864 13.232 35.6838 13.8667 35.3958 14.432C35.1078 14.9867 34.7238 15.4347 34.2438 15.776C33.7744 16.1173 33.1878 16.288 32.4838 16.288C31.7691 16.288 31.1718 16.1173 30.6918 15.776C30.2224 15.4347 29.8438 14.9867 29.5558 14.432C29.2678 13.8667 29.0651 13.232 28.9478 12.528C28.8304 11.8133 28.7718 11.088 28.7718 10.352C28.7718 9.616 28.8304 8.89067 28.9478 8.176C29.0651 7.46133 29.2678 6.82667 29.5558 6.272C29.8438 5.70667 30.2224 5.25333 30.6918 4.912C31.1718 4.56 31.7691 4.384 32.4838 4.384ZM32.4838 5.36C31.9824 5.36 31.5664 5.51467 31.2358 5.824C30.9051 6.13333 30.6438 6.528 30.4518 7.008C30.2598 7.488 30.1264 8.02667 30.0518 8.624C29.9771 9.21067 29.9398 9.78667 29.9398 10.352C29.9398 10.9173 29.9771 11.4933 30.0518 12.08C30.1264 12.6667 30.2598 13.2 30.4518 13.68C30.6438 14.1493 30.9051 14.5387 31.2358 14.848C31.5664 15.1467 31.9824 15.296 32.4838 15.296C32.9744 15.296 33.3851 15.1467 33.7158 14.848C34.0464 14.5387 34.3078 14.1493 34.4998 13.68C34.6918 13.2 34.8251 12.6667 34.8998 12.08C34.9851 11.4933 35.0278 10.9173 35.0278 10.352C35.0278 9.78667 34.9851 9.21067 34.8998 8.624C34.8251 8.02667 34.6918 7.488 34.4998 7.008C34.3078 6.528 34.0464 6.13333 33.7158 5.824C33.3851 5.51467 32.9744 5.36 32.4838 5.36Z" fill="#808080"/>
<path d="M4.64 81.384C5.344 81.384 5.93067 81.56 6.4 81.912C6.88 82.2533 7.264 82.7067 7.552 83.272C7.84 83.8267 8.04267 84.4613 8.16 85.176C8.288 85.8907 8.352 86.616 8.352 87.352C8.352 88.088 8.288 88.8133 8.16 89.528C8.04267 90.232 7.84 90.8667 7.552 91.432C7.264 91.9867 6.88 92.4347 6.4 92.776C5.93067 93.1173 5.344 93.288 4.64 93.288C3.92533 93.288 3.328 93.1173 2.848 92.776C2.37867 92.4347 2 91.9867 1.712 91.432C1.424 90.8667 1.22133 90.232 1.104 89.528C0.986667 88.8133 0.928 88.088 0.928 87.352C0.928 86.616 0.986667 85.8907 1.104 85.176C1.22133 84.4613 1.424 83.8267 1.712 83.272C2 82.7067 2.37867 82.2533 2.848 81.912C3.328 81.56 3.92533 81.384 4.64 81.384ZM4.64 82.36C4.13867 82.36 3.72267 82.5147 3.392 82.824C3.06133 83.1333 2.8 83.528 2.608 84.008C2.416 84.488 2.28267 85.0267 2.208 85.624C2.13333 86.2107 2.096 86.7867 2.096 87.352C2.096 87.9173 2.13333 88.4933 2.208 89.08C2.28267 89.6667 2.416 90.2 2.608 90.68C2.8 91.1493 3.06133 91.5387 3.392 91.848C3.72267 92.1467 4.13867 92.296 4.64 92.296C5.13067 92.296 5.54133 92.1467 5.872 91.848C6.20267 91.5387 6.464 91.1493 6.656 90.68C6.848 90.2 6.98133 89.6667 7.056 89.08C7.14133 88.4933 7.184 87.9173 7.184 87.352C7.184 86.7867 7.14133 86.2107 7.056 85.624C6.98133 85.0267 6.848 84.488 6.656 84.008C6.464 83.528 6.20267 83.1333 5.872 82.824C5.54133 82.5147 5.13067 82.36 4.64 82.36ZM13.9213 81.384C14.6253 81.384 15.2119 81.56 15.6813 81.912C16.1613 82.2533 16.5453 82.7067 16.8333 83.272C17.1213 83.8267 17.3239 84.4613 17.4413 85.176C17.5693 85.8907 17.6333 86.616 17.6333 87.352C17.6333 88.088 17.5693 88.8133 17.4413 89.528C17.3239 90.232 17.1213 90.8667 16.8333 91.432C16.5453 91.9867 16.1613 92.4347 15.6813 92.776C15.2119 93.1173 14.6253 93.288 13.9213 93.288C13.2066 93.288 12.6093 93.1173 12.1293 92.776C11.6599 92.4347 11.2813 91.9867 10.9933 91.432C10.7053 90.8667 10.5026 90.232 10.3853 89.528C10.2679 88.8133 10.2093 88.088 10.2093 87.352C10.2093 86.616 10.2679 85.8907 10.3853 85.176C10.5026 84.4613 10.7053 83.8267 10.9933 83.272C11.2813 82.7067 11.6599 82.2533 12.1293 81.912C12.6093 81.56 13.2066 81.384 13.9213 81.384ZM13.9213 82.36C13.4199 82.36 13.0039 82.5147 12.6733 82.824C12.3426 83.1333 12.0813 83.528 11.8893 84.008C11.6973 84.488 11.5639 85.0267 11.4893 85.624C11.4146 86.2107 11.3773 86.7867 11.3773 87.352C11.3773 87.9173 11.4146 88.4933 11.4893 89.08C11.5639 89.6667 11.6973 90.2 11.8893 90.68C12.0813 91.1493 12.3426 91.5387 12.6733 91.848C13.0039 92.1467 13.4199 92.296 13.9213 92.296C14.4119 92.296 14.8226 92.1467 15.1533 91.848C15.4839 91.5387 15.7453 91.1493 15.9373 90.68C16.1293 90.2 16.2626 89.6667 16.3373 89.08C16.4226 88.4933 16.4653 87.9173 16.4653 87.352C16.4653 86.7867 16.4226 86.2107 16.3373 85.624C16.2626 85.0267 16.1293 84.488 15.9373 84.008C15.7453 83.528 15.4839 83.1333 15.1533 82.824C14.8226 82.5147 14.4119 82.36 13.9213 82.36ZM23.2025 81.384C23.9065 81.384 24.4932 81.56 24.9625 81.912C25.4425 82.2533 25.8265 82.7067 26.1145 83.272C26.4025 83.8267 26.6052 84.4613 26.7225 85.176C26.8505 85.8907 26.9145 86.616 26.9145 87.352C26.9145 88.088 26.8505 88.8133 26.7225 89.528C26.6052 90.232 26.4025 90.8667 26.1145 91.432C25.8265 91.9867 25.4425 92.4347 24.9625 92.776C24.4932 93.1173 23.9065 93.288 23.2025 93.288C22.4878 93.288 21.8905 93.1173 21.4105 92.776C20.9412 92.4347 20.5625 91.9867 20.2745 91.432C19.9865 90.8667 19.7838 90.232 19.6665 89.528C19.5492 88.8133 19.4905 88.088 19.4905 87.352C19.4905 86.616 19.5492 85.8907 19.6665 85.176C19.7838 84.4613 19.9865 83.8267 20.2745 83.272C20.5625 82.7067 20.9412 82.2533 21.4105 81.912C21.8905 81.56 22.4878 81.384 23.2025 81.384ZM23.2025 82.36C22.7012 82.36 22.2852 82.5147 21.9545 82.824C21.6238 83.1333 21.3625 83.528 21.1705 84.008C20.9785 84.488 20.8452 85.0267 20.7705 85.624C20.6958 86.2107 20.6585 86.7867 20.6585 87.352C20.6585 87.9173 20.6958 88.4933 20.7705 89.08C20.8452 89.6667 20.9785 90.2 21.1705 90.68C21.3625 91.1493 21.6238 91.5387 21.9545 91.848C22.2852 92.1467 22.7012 92.296 23.2025 92.296C23.6932 92.296 24.1038 92.1467 24.4345 91.848C24.7652 91.5387 25.0265 91.1493 25.2185 90.68C25.4105 90.2 25.5438 89.6667 25.6185 89.08C25.7038 88.4933 25.7465 87.9173 25.7465 87.352C25.7465 86.7867 25.7038 86.2107 25.6185 85.624C25.5438 85.0267 25.4105 84.488 25.2185 84.008C25.0265 83.528 24.7652 83.1333 24.4345 82.824C24.1038 82.5147 23.6932 82.36 23.2025 82.36ZM32.4838 81.384C33.1878 81.384 33.7744 81.56 34.2438 81.912C34.7238 82.2533 35.1078 82.7067 35.3958 83.272C35.6838 83.8267 35.8864 84.4613 36.0038 85.176C36.1318 85.8907 36.1958 86.616 36.1958 87.352C36.1958 88.088 36.1318 88.8133 36.0038 89.528C35.8864 90.232 35.6838 90.8667 35.3958 91.432C35.1078 91.9867 34.7238 92.4347 34.2438 92.776C33.7744 93.1173 33.1878 93.288 32.4838 93.288C31.7691 93.288 31.1718 93.1173 30.6918 92.776C30.2224 92.4347 29.8438 91.9867 29.5558 91.432C29.2678 90.8667 29.0651 90.232 28.9478 89.528C28.8304 88.8133 28.7718 88.088 28.7718 87.352C28.7718 86.616 28.8304 85.8907 28.9478 85.176C29.0651 84.4613 29.2678 83.8267 29.5558 83.272C29.8438 82.7067 30.2224 82.2533 30.6918 81.912C31.1718 81.56 31.7691 81.384 32.4838 81.384ZM32.4838 82.36C31.9824 82.36 31.5664 82.5147 31.2358 82.824C30.9051 83.1333 30.6438 83.528 30.4518 84.008C30.2598 84.488 30.1264 85.0267 30.0518 85.624C29.9771 86.2107 29.9398 86.7867 29.9398 87.352C29.9398 87.9173 29.9771 88.4933 30.0518 89.08C30.1264 89.6667 30.2598 90.2 30.4518 90.68C30.6438 91.1493 30.9051 91.5387 31.2358 91.848C31.5664 92.1467 31.9824 92.296 32.4838 92.296C32.9744 92.296 33.3851 92.1467 33.7158 91.848C34.0464 91.5387 34.3078 91.1493 34.4998 90.68C34.6918 90.2 34.8251 89.6667 34.8998 89.08C34.9851 88.4933 35.0278 87.9173 35.0278 87.352C35.0278 86.7867 34.9851 86.2107 34.8998 85.624C34.8251 85.0267 34.6918 84.488 34.4998 84.008C34.3078 83.528 34.0464 83.1333 33.7158 82.824C33.3851 82.5147 32.9744 82.36 32.4838 82.36Z" fill="#808080"/>
<path d="M4.64 162.384C5.344 162.384 5.93067 162.56 6.4 162.912C6.88 163.253 7.264 163.707 7.552 164.272C7.84 164.827 8.04267 165.461 8.16 166.176C8.288 166.891 8.352 167.616 8.352 168.352C8.352 169.088 8.288 169.813 8.16 170.528C8.04267 171.232 7.84 171.867 7.552 172.432C7.264 172.987 6.88 173.435 6.4 173.776C5.93067 174.117 5.344 174.288 4.64 174.288C3.92533 174.288 3.328 174.117 2.848 173.776C2.37867 173.435 2 172.987 1.712 172.432C1.424 171.867 1.22133 171.232 1.104 170.528C0.986667 169.813 0.928 169.088 0.928 168.352C0.928 167.616 0.986667 166.891 1.104 166.176C1.22133 165.461 1.424 164.827 1.712 164.272C2 163.707 2.37867 163.253 2.848 162.912C3.328 162.56 3.92533 162.384 4.64 162.384ZM4.64 163.36C4.13867 163.36 3.72267 163.515 3.392 163.824C3.06133 164.133 2.8 164.528 2.608 165.008C2.416 165.488 2.28267 166.027 2.208 166.624C2.13333 167.211 2.096 167.787 2.096 168.352C2.096 168.917 2.13333 169.493 2.208 170.08C2.28267 170.667 2.416 171.2 2.608 171.68C2.8 172.149 3.06133 172.539 3.392 172.848C3.72267 173.147 4.13867 173.296 4.64 173.296C5.13067 173.296 5.54133 173.147 5.872 172.848C6.20267 172.539 6.464 172.149 6.656 171.68C6.848 171.2 6.98133 170.667 7.056 170.08C7.14133 169.493 7.184 168.917 7.184 168.352C7.184 167.787 7.14133 167.211 7.056 166.624C6.98133 166.027 6.848 165.488 6.656 165.008C6.464 164.528 6.20267 164.133 5.872 163.824C5.54133 163.515 5.13067 163.36 4.64 163.36ZM17.3453 174H10.0973V172.8L14.7373 168.112C14.9079 167.941 15.0733 167.76 15.2333 167.568C15.4039 167.365 15.5533 167.157 15.6813 166.944C15.8093 166.731 15.9106 166.507 15.9853 166.272C16.0599 166.027 16.0973 165.776 16.0973 165.52C16.0973 165.189 16.0386 164.891 15.9213 164.624C15.8039 164.357 15.6386 164.133 15.4253 163.952C15.2226 163.76 14.9826 163.616 14.7053 163.52C14.4386 163.413 14.1559 163.36 13.8573 163.36C13.2493 163.36 12.7373 163.552 12.3213 163.936C11.9053 164.309 11.6386 164.789 11.5213 165.376L10.3853 165.152C10.4599 164.757 10.5986 164.389 10.8013 164.048C11.0146 163.707 11.2706 163.413 11.5693 163.168C11.8786 162.923 12.2253 162.731 12.6093 162.592C12.9933 162.453 13.4093 162.384 13.8573 162.384C14.3159 162.384 14.7479 162.453 15.1533 162.592C15.5693 162.72 15.9319 162.917 16.2413 163.184C16.5506 163.44 16.7959 163.765 16.9773 164.16C17.1693 164.544 17.2653 164.992 17.2653 165.504C17.2653 165.867 17.2119 166.203 17.1053 166.512C17.0093 166.821 16.8759 167.115 16.7053 167.392C16.5453 167.669 16.3533 167.936 16.1293 168.192C15.9053 168.437 15.6706 168.683 15.4253 168.928L11.3453 172.976H17.3453V174ZM23.2025 162.384C23.9065 162.384 24.4932 162.56 24.9625 162.912C25.4425 163.253 25.8265 163.707 26.1145 164.272C26.4025 164.827 26.6052 165.461 26.7225 166.176C26.8505 166.891 26.9145 167.616 26.9145 168.352C26.9145 169.088 26.8505 169.813 26.7225 170.528C26.6052 171.232 26.4025 171.867 26.1145 172.432C25.8265 172.987 25.4425 173.435 24.9625 173.776C24.4932 174.117 23.9065 174.288 23.2025 174.288C22.4878 174.288 21.8905 174.117 21.4105 173.776C20.9412 173.435 20.5625 172.987 20.2745 172.432C19.9865 171.867 19.7838 171.232 19.6665 170.528C19.5492 169.813 19.4905 169.088 19.4905 168.352C19.4905 167.616 19.5492 166.891 19.6665 166.176C19.7838 165.461 19.9865 164.827 20.2745 164.272C20.5625 163.707 20.9412 163.253 21.4105 162.912C21.8905 162.56 22.4878 162.384 23.2025 162.384ZM23.2025 163.36C22.7012 163.36 22.2852 163.515 21.9545 163.824C21.6238 164.133 21.3625 164.528 21.1705 165.008C20.9785 165.488 20.8452 166.027 20.7705 166.624C20.6958 167.211 20.6585 167.787 20.6585 168.352C20.6585 168.917 20.6958 169.493 20.7705 170.08C20.8452 170.667 20.9785 171.2 21.1705 171.68C21.3625 172.149 21.6238 172.539 21.9545 172.848C22.2852 173.147 22.7012 173.296 23.2025 173.296C23.6932 173.296 24.1038 173.147 24.4345 172.848C24.7652 172.539 25.0265 172.149 25.2185 171.68C25.4105 171.2 25.5438 170.667 25.6185 170.08C25.7038 169.493 25.7465 168.917 25.7465 168.352C25.7465 167.787 25.7038 167.211 25.6185 166.624C25.5438 166.027 25.4105 165.488 25.2185 165.008C25.0265 164.528 24.7652 164.133 24.4345 163.824C24.1038 163.515 23.6932 163.36 23.2025 163.36ZM32.4838 162.384C33.1878 162.384 33.7744 162.56 34.2438 162.912C34.7238 163.253 35.1078 163.707 35.3958 164.272C35.6838 164.827 35.8864 165.461 36.0038 166.176C36.1318 166.891 36.1958 167.616 36.1958 168.352C36.1958 169.088 36.1318 169.813 36.0038 170.528C35.8864 171.232 35.6838 171.867 35.3958 172.432C35.1078 172.987 34.7238 173.435 34.2438 173.776C33.7744 174.117 33.1878 174.288 32.4838 174.288C31.7691 174.288 31.1718 174.117 30.6918 173.776C30.2224 173.435 29.8438 172.987 29.5558 172.432C29.2678 171.867 29.0651 171.232 28.9478 170.528C28.8304 169.813 28.7718 169.088 28.7718 168.352C28.7718 167.616 28.8304 166.891 28.9478 166.176C29.0651 165.461 29.2678 164.827 29.5558 164.272C29.8438 163.707 30.2224 163.253 30.6918 162.912C31.1718 162.56 31.7691 162.384 32.4838 162.384ZM32.4838 163.36C31.9824 163.36 31.5664 163.515 31.2358 163.824C30.9051 164.133 30.6438 164.528 30.4518 165.008C30.2598 165.488 30.1264 166.027 30.0518 166.624C29.9771 167.211 29.9398 167.787 29.9398 168.352C29.9398 168.917 29.9771 169.493 30.0518 170.08C30.1264 170.667 30.2598 171.2 30.4518 171.68C30.6438 172.149 30.9051 172.539 31.2358 172.848C31.5664 173.147 31.9824 173.296 32.4838 173.296C32.9744 173.296 33.3851 173.147 33.7158 172.848C34.0464 172.539 34.3078 172.149 34.4998 171.68C34.6918 171.2 34.8251 170.667 34.8998 170.08C34.9851 169.493 35.0278 168.917 35.0278 168.352C35.0278 167.787 34.9851 167.211 34.8998 166.624C34.8251 166.027 34.6918 165.488 34.4998 165.008C34.3078 164.528 34.0464 164.133 33.7158 163.824C33.3851 163.515 32.9744 163.36 32.4838 163.36Z" fill="#808080"/>
<path d="M4.64 241.384C5.344 241.384 5.93067 241.56 6.4 241.912C6.88 242.253 7.264 242.707 7.552 243.272C7.84 243.827 8.04267 244.461 8.16 245.176C8.288 245.891 8.352 246.616 8.352 247.352C8.352 248.088 8.288 248.813 8.16 249.528C8.04267 250.232 7.84 250.867 7.552 251.432C7.264 251.987 6.88 252.435 6.4 252.776C5.93067 253.117 5.344 253.288 4.64 253.288C3.92533 253.288 3.328 253.117 2.848 252.776C2.37867 252.435 2 251.987 1.712 251.432C1.424 250.867 1.22133 250.232 1.104 249.528C0.986667 248.813 0.928 248.088 0.928 247.352C0.928 246.616 0.986667 245.891 1.104 245.176C1.22133 244.461 1.424 243.827 1.712 243.272C2 242.707 2.37867 242.253 2.848 241.912C3.328 241.56 3.92533 241.384 4.64 241.384ZM4.64 242.36C4.13867 242.36 3.72267 242.515 3.392 242.824C3.06133 243.133 2.8 243.528 2.608 244.008C2.416 244.488 2.28267 245.027 2.208 245.624C2.13333 246.211 2.096 246.787 2.096 247.352C2.096 247.917 2.13333 248.493 2.208 249.08C2.28267 249.667 2.416 250.2 2.608 250.68C2.8 251.149 3.06133 251.539 3.392 251.848C3.72267 252.147 4.13867 252.296 4.64 252.296C5.13067 252.296 5.54133 252.147 5.872 251.848C6.20267 251.539 6.464 251.149 6.656 250.68C6.848 250.2 6.98133 249.667 7.056 249.08C7.14133 248.493 7.184 247.917 7.184 247.352C7.184 246.787 7.14133 246.211 7.056 245.624C6.98133 245.027 6.848 244.488 6.656 244.008C6.464 243.528 6.20267 243.133 5.872 242.824C5.54133 242.515 5.13067 242.36 4.64 242.36ZM16.2573 249.256H17.9213V250.264H16.2573V253H15.1373V250.264H9.95325V249.144L14.7533 241.672H16.2573V249.256ZM15.1373 242.968H15.1053L11.1533 249.256H15.1373V242.968ZM23.2025 241.384C23.9065 241.384 24.4932 241.56 24.9625 241.912C25.4425 242.253 25.8265 242.707 26.1145 243.272C26.4025 243.827 26.6052 244.461 26.7225 245.176C26.8505 245.891 26.9145 246.616 26.9145 247.352C26.9145 248.088 26.8505 248.813 26.7225 249.528C26.6052 250.232 26.4025 250.867 26.1145 251.432C25.8265 251.987 25.4425 252.435 24.9625 252.776C24.4932 253.117 23.9065 253.288 23.2025 253.288C22.4878 253.288 21.8905 253.117 21.4105 252.776C20.9412 252.435 20.5625 251.987 20.2745 251.432C19.9865 250.867 19.7838 250.232 19.6665 249.528C19.5492 248.813 19.4905 248.088 19.4905 247.352C19.4905 246.616 19.5492 245.891 19.6665 245.176C19.7838 244.461 19.9865 243.827 20.2745 243.272C20.5625 242.707 20.9412 242.253 21.4105 241.912C21.8905 241.56 22.4878 241.384 23.2025 241.384ZM23.2025 242.36C22.7012 242.36 22.2852 242.515 21.9545 242.824C21.6238 243.133 21.3625 243.528 21.1705 244.008C20.9785 244.488 20.8452 245.027 20.7705 245.624C20.6958 246.211 20.6585 246.787 20.6585 247.352C20.6585 247.917 20.6958 248.493 20.7705 249.08C20.8452 249.667 20.9785 250.2 21.1705 250.68C21.3625 251.149 21.6238 251.539 21.9545 251.848C22.2852 252.147 22.7012 252.296 23.2025 252.296C23.6932 252.296 24.1038 252.147 24.4345 251.848C24.7652 251.539 25.0265 251.149 25.2185 250.68C25.4105 250.2 25.5438 249.667 25.6185 249.08C25.7038 248.493 25.7465 247.917 25.7465 247.352C25.7465 246.787 25.7038 246.211 25.6185 245.624C25.5438 245.027 25.4105 244.488 25.2185 244.008C25.0265 243.528 24.7652 243.133 24.4345 242.824C24.1038 242.515 23.6932 242.36 23.2025 242.36ZM32.4838 241.384C33.1878 241.384 33.7744 241.56 34.2438 241.912C34.7238 242.253 35.1078 242.707 35.3958 243.272C35.6838 243.827 35.8864 244.461 36.0038 245.176C36.1318 245.891 36.1958 246.616 36.1958 247.352C36.1958 248.088 36.1318 248.813 36.0038 249.528C35.8864 250.232 35.6838 250.867 35.3958 251.432C35.1078 251.987 34.7238 252.435 34.2438 252.776C33.7744 253.117 33.1878 253.288 32.4838 253.288C31.7691 253.288 31.1718 253.117 30.6918 252.776C30.2224 252.435 29.8438 251.987 29.5558 251.432C29.2678 250.867 29.0651 250.232 28.9478 249.528C28.8304 248.813 28.7718 248.088 28.7718 247.352C28.7718 246.616 28.8304 245.891 28.9478 245.176C29.0651 244.461 29.2678 243.827 29.5558 243.272C29.8438 242.707 30.2224 242.253 30.6918 241.912C31.1718 241.56 31.7691 241.384 32.4838 241.384ZM32.4838 242.36C31.9824 242.36 31.5664 242.515 31.2358 242.824C30.9051 243.133 30.6438 243.528 30.4518 244.008C30.2598 244.488 30.1264 245.027 30.0518 245.624C29.9771 246.211 29.9398 246.787 29.9398 247.352C29.9398 247.917 29.9771 248.493 30.0518 249.08C30.1264 249.667 30.2598 250.2 30.4518 250.68C30.6438 251.149 30.9051 251.539 31.2358 251.848C31.5664 252.147 31.9824 252.296 32.4838 252.296C32.9744 252.296 33.3851 252.147 33.7158 251.848C34.0464 251.539 34.3078 251.149 34.4998 250.68C34.6918 250.2 34.8251 249.667 34.8998 249.08C34.9851 248.493 35.0278 247.917 35.0278 247.352C35.0278 246.787 34.9851 246.211 34.8998 245.624C34.8251 245.027 34.6918 244.488 34.4998 244.008C34.3078 243.528 34.0464 243.133 33.7158 242.824C33.3851 242.515 32.9744 242.36 32.4838 242.36Z" fill="#808080"/>
<path d="M4.64 318.384C5.344 318.384 5.93067 318.56 6.4 318.912C6.88 319.253 7.264 319.707 7.552 320.272C7.84 320.827 8.04267 321.461 8.16 322.176C8.288 322.891 8.352 323.616 8.352 324.352C8.352 325.088 8.288 325.813 8.16 326.528C8.04267 327.232 7.84 327.867 7.552 328.432C7.264 328.987 6.88 329.435 6.4 329.776C5.93067 330.117 5.344 330.288 4.64 330.288C3.92533 330.288 3.328 330.117 2.848 329.776C2.37867 329.435 2 328.987 1.712 328.432C1.424 327.867 1.22133 327.232 1.104 326.528C0.986667 325.813 0.928 325.088 0.928 324.352C0.928 323.616 0.986667 322.891 1.104 322.176C1.22133 321.461 1.424 320.827 1.712 320.272C2 319.707 2.37867 319.253 2.848 318.912C3.328 318.56 3.92533 318.384 4.64 318.384ZM4.64 319.36C4.13867 319.36 3.72267 319.515 3.392 319.824C3.06133 320.133 2.8 320.528 2.608 321.008C2.416 321.488 2.28267 322.027 2.208 322.624C2.13333 323.211 2.096 323.787 2.096 324.352C2.096 324.917 2.13333 325.493 2.208 326.08C2.28267 326.667 2.416 327.2 2.608 327.68C2.8 328.149 3.06133 328.539 3.392 328.848C3.72267 329.147 4.13867 329.296 4.64 329.296C5.13067 329.296 5.54133 329.147 5.872 328.848C6.20267 328.539 6.464 328.149 6.656 327.68C6.848 327.2 6.98133 326.667 7.056 326.08C7.14133 325.493 7.184 324.917 7.184 324.352C7.184 323.787 7.14133 323.211 7.056 322.624C6.98133 322.027 6.848 321.488 6.656 321.008C6.464 320.528 6.20267 320.133 5.872 319.824C5.54133 319.515 5.13067 319.36 4.64 319.36ZM12.4973 323.616L12.5293 323.648C12.6999 323.52 12.9399 323.419 13.2493 323.344C13.5586 323.269 13.8573 323.232 14.1453 323.232C14.6359 323.232 15.0893 323.317 15.5053 323.488C15.9319 323.659 16.2999 323.899 16.6093 324.208C16.9186 324.507 17.1586 324.875 17.3293 325.312C17.5106 325.739 17.6013 326.208 17.6013 326.72C17.6013 327.253 17.5106 327.739 17.3293 328.176C17.1479 328.613 16.8919 328.987 16.5613 329.296C16.2306 329.605 15.8413 329.845 15.3933 330.016C14.9453 330.197 14.4546 330.288 13.9213 330.288C13.3879 330.288 12.8973 330.197 12.4493 330.016C12.0013 329.845 11.6119 329.605 11.2812 329.296C10.9506 328.987 10.6946 328.613 10.5133 328.176C10.3319 327.739 10.2413 327.253 10.2413 326.72C10.2413 326.133 10.3426 325.589 10.5453 325.088C10.7479 324.587 10.9879 324.107 11.2653 323.648L14.3533 318.672H15.6813L12.4973 323.616ZM11.3932 326.72C11.3932 327.093 11.4519 327.44 11.5693 327.76C11.6973 328.069 11.8733 328.341 12.0973 328.576C12.3213 328.8 12.5879 328.981 12.8973 329.12C13.2066 329.248 13.5479 329.312 13.9213 329.312C14.2946 329.312 14.6359 329.248 14.9453 329.12C15.2546 328.981 15.5213 328.8 15.7453 328.576C15.9693 328.341 16.1399 328.069 16.2573 327.76C16.3853 327.44 16.4493 327.093 16.4493 326.72C16.4493 326.357 16.3906 326.021 16.2733 325.712C16.1559 325.392 15.9853 325.12 15.7613 324.896C15.5479 324.661 15.2813 324.48 14.9613 324.352C14.6519 324.224 14.3053 324.16 13.9213 324.16C13.5373 324.16 13.1853 324.224 12.8653 324.352C12.5559 324.48 12.2893 324.661 12.0653 324.896C11.8519 325.12 11.6866 325.392 11.5693 325.712C11.4519 326.021 11.3932 326.357 11.3932 326.72ZM23.2025 318.384C23.9065 318.384 24.4932 318.56 24.9625 318.912C25.4425 319.253 25.8265 319.707 26.1145 320.272C26.4025 320.827 26.6052 321.461 26.7225 322.176C26.8505 322.891 26.9145 323.616 26.9145 324.352C26.9145 325.088 26.8505 325.813 26.7225 326.528C26.6052 327.232 26.4025 327.867 26.1145 328.432C25.8265 328.987 25.4425 329.435 24.9625 329.776C24.4932 330.117 23.9065 330.288 23.2025 330.288C22.4878 330.288 21.8905 330.117 21.4105 329.776C20.9412 329.435 20.5625 328.987 20.2745 328.432C19.9865 327.867 19.7838 327.232 19.6665 326.528C19.5492 325.813 19.4905 325.088 19.4905 324.352C19.4905 323.616 19.5492 322.891 19.6665 322.176C19.7838 321.461 19.9865 320.827 20.2745 320.272C20.5625 319.707 20.9412 319.253 21.4105 318.912C21.8905 318.56 22.4878 318.384 23.2025 318.384ZM23.2025 319.36C22.7012 319.36 22.2852 319.515 21.9545 319.824C21.6238 320.133 21.3625 320.528 21.1705 321.008C20.9785 321.488 20.8452 322.027 20.7705 322.624C20.6958 323.211 20.6585 323.787 20.6585 324.352C20.6585 324.917 20.6958 325.493 20.7705 326.08C20.8452 326.667 20.9785 327.2 21.1705 327.68C21.3625 328.149 21.6238 328.539 21.9545 328.848C22.2852 329.147 22.7012 329.296 23.2025 329.296C23.6932 329.296 24.1038 329.147 24.4345 328.848C24.7652 328.539 25.0265 328.149 25.2185 327.68C25.4105 327.2 25.5438 326.667 25.6185 326.08C25.7038 325.493 25.7465 324.917 25.7465 324.352C25.7465 323.787 25.7038 323.211 25.6185 322.624C25.5438 322.027 25.4105 321.488 25.2185 321.008C25.0265 320.528 24.7652 320.133 24.4345 319.824C24.1038 319.515 23.6932 319.36 23.2025 319.36ZM32.4838 318.384C33.1878 318.384 33.7744 318.56 34.2438 318.912C34.7238 319.253 35.1078 319.707 35.3958 320.272C35.6838 320.827 35.8864 321.461 36.0038 322.176C36.1318 322.891 36.1958 323.616 36.1958 324.352C36.1958 325.088 36.1318 325.813 36.0038 326.528C35.8864 327.232 35.6838 327.867 35.3958 328.432C35.1078 328.987 34.7238 329.435 34.2438 329.776C33.7744 330.117 33.1878 330.288 32.4838 330.288C31.7691 330.288 31.1718 330.117 30.6918 329.776C30.2224 329.435 29.8438 328.987 29.5558 328.432C29.2678 327.867 29.0651 327.232 28.9478 326.528C28.8304 325.813 28.7718 325.088 28.7718 324.352C28.7718 323.616 28.8304 322.891 28.9478 322.176C29.0651 321.461 29.2678 320.827 29.5558 320.272C29.8438 319.707 30.2224 319.253 30.6918 318.912C31.1718 318.56 31.7691 318.384 32.4838 318.384ZM32.4838 319.36C31.9824 319.36 31.5664 319.515 31.2358 319.824C30.9051 320.133 30.6438 320.528 30.4518 321.008C30.2598 321.488 30.1264 322.027 30.0518 322.624C29.9771 323.211 29.9398 323.787 29.9398 324.352C29.9398 324.917 29.9771 325.493 30.0518 326.08C30.1264 326.667 30.2598 327.2 30.4518 327.68C30.6438 328.149 30.9051 328.539 31.2358 328.848C31.5664 329.147 31.9824 329.296 32.4838 329.296C32.9744 329.296 33.3851 329.147 33.7158 328.848C34.0464 328.539 34.3078 328.149 34.4998 327.68C34.6918 327.2 34.8251 326.667 34.8998 326.08C34.9851 325.493 35.0278 324.917 35.0278 324.352C35.0278 323.787 34.9851 323.211 34.8998 322.624C34.8251 322.027 34.6918 321.488 34.4998 321.008C34.3078 320.528 34.0464 320.133 33.7158 319.824C33.3851 319.515 32.9744 319.36 32.4838 319.36Z" fill="#808080"/>
<path d="M4.64 399.384C5.344 399.384 5.93067 399.56 6.4 399.912C6.88 400.253 7.264 400.707 7.552 401.272C7.84 401.827 8.04267 402.461 8.16 403.176C8.288 403.891 8.352 404.616 8.352 405.352C8.352 406.088 8.288 406.813 8.16 407.528C8.04267 408.232 7.84 408.867 7.552 409.432C7.264 409.987 6.88 410.435 6.4 410.776C5.93067 411.117 5.344 411.288 4.64 411.288C3.92533 411.288 3.328 411.117 2.848 410.776C2.37867 410.435 2 409.987 1.712 409.432C1.424 408.867 1.22133 408.232 1.104 407.528C0.986667 406.813 0.928 406.088 0.928 405.352C0.928 404.616 0.986667 403.891 1.104 403.176C1.22133 402.461 1.424 401.827 1.712 401.272C2 400.707 2.37867 400.253 2.848 399.912C3.328 399.56 3.92533 399.384 4.64 399.384ZM4.64 400.36C4.13867 400.36 3.72267 400.515 3.392 400.824C3.06133 401.133 2.8 401.528 2.608 402.008C2.416 402.488 2.28267 403.027 2.208 403.624C2.13333 404.211 2.096 404.787 2.096 405.352C2.096 405.917 2.13333 406.493 2.208 407.08C2.28267 407.667 2.416 408.2 2.608 408.68C2.8 409.149 3.06133 409.539 3.392 409.848C3.72267 410.147 4.13867 410.296 4.64 410.296C5.13067 410.296 5.54133 410.147 5.872 409.848C6.20267 409.539 6.464 409.149 6.656 408.68C6.848 408.2 6.98133 407.667 7.056 407.08C7.14133 406.493 7.184 405.917 7.184 405.352C7.184 404.787 7.14133 404.211 7.056 403.624C6.98133 403.027 6.848 402.488 6.656 402.008C6.464 401.528 6.20267 401.133 5.872 400.824C5.54133 400.515 5.13067 400.36 4.64 400.36ZM15.4093 405C16.0279 405.181 16.5399 405.539 16.9453 406.072C17.3506 406.605 17.5533 407.256 17.5533 408.024C17.5533 408.525 17.4519 408.979 17.2493 409.384C17.0573 409.779 16.7959 410.12 16.4653 410.408C16.1346 410.685 15.7453 410.899 15.2973 411.048C14.8599 411.208 14.4013 411.288 13.9213 411.288C13.4413 411.288 12.9773 411.208 12.5293 411.048C12.0919 410.899 11.7079 410.685 11.3773 410.408C11.0466 410.12 10.7799 409.779 10.5773 409.384C10.3853 408.979 10.2893 408.525 10.2893 408.024C10.2893 407.64 10.3426 407.288 10.4493 406.968C10.5559 406.637 10.7053 406.344 10.8973 406.088C11.0893 405.821 11.3133 405.597 11.5693 405.416C11.8359 405.235 12.1239 405.096 12.4333 405V404.968C12.1773 404.883 11.9426 404.76 11.7293 404.6C11.5266 404.429 11.3506 404.232 11.2013 404.008C11.0519 403.773 10.9346 403.523 10.8493 403.256C10.7639 402.979 10.7213 402.696 10.7213 402.408C10.7213 401.949 10.8066 401.533 10.9773 401.16C11.1479 400.787 11.3773 400.472 11.6653 400.216C11.9639 399.949 12.3053 399.747 12.6893 399.608C13.0733 399.459 13.4839 399.384 13.9213 399.384C14.3479 399.384 14.7533 399.459 15.1373 399.608C15.5319 399.747 15.8733 399.949 16.1613 400.216C16.4599 400.472 16.6946 400.787 16.8653 401.16C17.0359 401.533 17.1213 401.949 17.1213 402.408C17.1213 402.696 17.0786 402.979 16.9933 403.256C16.9079 403.523 16.7906 403.773 16.6413 404.008C16.4919 404.232 16.3106 404.429 16.0973 404.6C15.8946 404.76 15.6653 404.883 15.4093 404.968V405ZM11.8413 402.472C11.8413 402.771 11.8946 403.043 12.0013 403.288C12.1079 403.533 12.2573 403.747 12.4493 403.928C12.6413 404.109 12.8599 404.253 13.1053 404.36C13.3613 404.456 13.6333 404.504 13.9213 404.504C14.2093 404.504 14.4759 404.456 14.7213 404.36C14.9773 404.253 15.2013 404.109 15.3933 403.928C15.5853 403.747 15.7346 403.533 15.8413 403.288C15.9479 403.043 16.0013 402.771 16.0013 402.472C16.0013 402.173 15.9479 401.896 15.8413 401.64C15.7346 401.373 15.5853 401.149 15.3933 400.968C15.2119 400.776 14.9933 400.627 14.7373 400.52C14.4919 400.413 14.2199 400.36 13.9213 400.36C13.6226 400.36 13.3453 400.413 13.0893 400.52C12.8439 400.627 12.6253 400.776 12.4333 400.968C12.2519 401.149 12.1079 401.373 12.0013 401.64C11.8946 401.896 11.8413 402.173 11.8413 402.472ZM11.4413 407.896C11.4413 408.237 11.4999 408.557 11.6173 408.856C11.7346 409.155 11.8999 409.411 12.1133 409.624C12.3373 409.837 12.5986 410.008 12.8973 410.136C13.2066 410.253 13.5479 410.312 13.9213 410.312C14.2946 410.312 14.6306 410.253 14.9293 410.136C15.2386 410.008 15.4999 409.837 15.7133 409.624C15.9373 409.411 16.1079 409.155 16.2253 408.856C16.3426 408.557 16.4013 408.237 16.4013 407.896C16.4013 407.555 16.3426 407.24 16.2253 406.952C16.1079 406.664 15.9373 406.413 15.7133 406.2C15.4999 405.987 15.2386 405.821 14.9293 405.704C14.6306 405.587 14.2946 405.528 13.9213 405.528C13.5479 405.528 13.2066 405.587 12.8973 405.704C12.5986 405.821 12.3373 405.987 12.1133 406.2C11.8999 406.413 11.7346 406.664 11.6173 406.952C11.4999 407.24 11.4413 407.555 11.4413 407.896ZM23.2025 399.384C23.9065 399.384 24.4932 399.56 24.9625 399.912C25.4425 400.253 25.8265 400.707 26.1145 401.272C26.4025 401.827 26.6052 402.461 26.7225 403.176C26.8505 403.891 26.9145 404.616 26.9145 405.352C26.9145 406.088 26.8505 406.813 26.7225 407.528C26.6052 408.232 26.4025 408.867 26.1145 409.432C25.8265 409.987 25.4425 410.435 24.9625 410.776C24.4932 411.117 23.9065 411.288 23.2025 411.288C22.4878 411.288 21.8905 411.117 21.4105 410.776C20.9412 410.435 20.5625 409.987 20.2745 409.432C19.9865 408.867 19.7838 408.232 19.6665 407.528C19.5492 406.813 19.4905 406.088 19.4905 405.352C19.4905 404.616 19.5492 403.891 19.6665 403.176C19.7838 402.461 19.9865 401.827 20.2745 401.272C20.5625 400.707 20.9412 400.253 21.4105 399.912C21.8905 399.56 22.4878 399.384 23.2025 399.384ZM23.2025 400.36C22.7012 400.36 22.2852 400.515 21.9545 400.824C21.6238 401.133 21.3625 401.528 21.1705 402.008C20.9785 402.488 20.8452 403.027 20.7705 403.624C20.6958 404.211 20.6585 404.787 20.6585 405.352C20.6585 405.917 20.6958 406.493 20.7705 407.08C20.8452 407.667 20.9785 408.2 21.1705 408.68C21.3625 409.149 21.6238 409.539 21.9545 409.848C22.2852 410.147 22.7012 410.296 23.2025 410.296C23.6932 410.296 24.1038 410.147 24.4345 409.848C24.7652 409.539 25.0265 409.149 25.2185 408.68C25.4105 408.2 25.5438 407.667 25.6185 407.08C25.7038 406.493 25.7465 405.917 25.7465 405.352C25.7465 404.787 25.7038 404.211 25.6185 403.624C25.5438 403.027 25.4105 402.488 25.2185 402.008C25.0265 401.528 24.7652 401.133 24.4345 400.824C24.1038 400.515 23.6932 400.36 23.2025 400.36ZM32.4838 399.384C33.1878 399.384 33.7744 399.56 34.2438 399.912C34.7238 400.253 35.1078 400.707 35.3958 401.272C35.6838 401.827 35.8864 402.461 36.0038 403.176C36.1318 403.891 36.1958 404.616 36.1958 405.352C36.1958 406.088 36.1318 406.813 36.0038 407.528C35.8864 408.232 35.6838 408.867 35.3958 409.432C35.1078 409.987 34.7238 410.435 34.2438 410.776C33.7744 411.117 33.1878 411.288 32.4838 411.288C31.7691 411.288 31.1718 411.117 30.6918 410.776C30.2224 410.435 29.8438 409.987 29.5558 409.432C29.2678 408.867 29.0651 408.232 28.9478 407.528C28.8304 406.813 28.7718 406.088 28.7718 405.352C28.7718 404.616 28.8304 403.891 28.9478 403.176C29.0651 402.461 29.2678 401.827 29.5558 401.272C29.8438 400.707 30.2224 400.253 30.6918 399.912C31.1718 399.56 31.7691 399.384 32.4838 399.384ZM32.4838 400.36C31.9824 400.36 31.5664 400.515 31.2358 400.824C30.9051 401.133 30.6438 401.528 30.4518 402.008C30.2598 402.488 30.1264 403.027 30.0518 403.624C29.9771 404.211 29.9398 404.787 29.9398 405.352C29.9398 405.917 29.9771 406.493 30.0518 407.08C30.1264 407.667 30.2598 408.2 30.4518 408.68C30.6438 409.149 30.9051 409.539 31.2358 409.848C31.5664 410.147 31.9824 410.296 32.4838 410.296C32.9744 410.296 33.3851 410.147 33.7158 409.848C34.0464 409.539 34.3078 409.149 34.4998 408.68C34.6918 408.2 34.8251 407.667 34.8998 407.08C34.9851 406.493 35.0278 405.917 35.0278 405.352C35.0278 404.787 34.9851 404.211 34.8998 403.624C34.8251 403.027 34.6918 402.488 34.4998 402.008C34.3078 401.528 34.0464 401.133 33.7158 400.824C33.3851 400.515 32.9744 400.36 32.4838 400.36Z" fill="#808080"/>
<path d="M5.728 489H4.576V479.096L2.528 480.84L1.824 480.04L4.704 477.672H5.728V489ZM13.9213 477.384C14.6253 477.384 15.2119 477.56 15.6813 477.912C16.1613 478.253 16.5453 478.707 16.8333 479.272C17.1213 479.827 17.3239 480.461 17.4413 481.176C17.5693 481.891 17.6333 482.616 17.6333 483.352C17.6333 484.088 17.5693 484.813 17.4413 485.528C17.3239 486.232 17.1213 486.867 16.8333 487.432C16.5453 487.987 16.1613 488.435 15.6813 488.776C15.2119 489.117 14.6253 489.288 13.9213 489.288C13.2066 489.288 12.6093 489.117 12.1293 488.776C11.6599 488.435 11.2813 487.987 10.9933 487.432C10.7053 486.867 10.5026 486.232 10.3853 485.528C10.2679 484.813 10.2093 484.088 10.2093 483.352C10.2093 482.616 10.2679 481.891 10.3853 481.176C10.5026 480.461 10.7053 479.827 10.9933 479.272C11.2813 478.707 11.6599 478.253 12.1293 477.912C12.6093 477.56 13.2066 477.384 13.9213 477.384ZM13.9213 478.36C13.4199 478.36 13.0039 478.515 12.6733 478.824C12.3426 479.133 12.0813 479.528 11.8893 480.008C11.6973 480.488 11.5639 481.027 11.4893 481.624C11.4146 482.211 11.3773 482.787 11.3773 483.352C11.3773 483.917 11.4146 484.493 11.4893 485.08C11.5639 485.667 11.6973 486.2 11.8893 486.68C12.0813 487.149 12.3426 487.539 12.6733 487.848C13.0039 488.147 13.4199 488.296 13.9213 488.296C14.4119 488.296 14.8226 488.147 15.1533 487.848C15.4839 487.539 15.7453 487.149 15.9373 486.68C16.1293 486.2 16.2626 485.667 16.3373 485.08C16.4226 484.493 16.4653 483.917 16.4653 483.352C16.4653 482.787 16.4226 482.211 16.3373 481.624C16.2626 481.027 16.1293 480.488 15.9373 480.008C15.7453 479.528 15.4839 479.133 15.1533 478.824C14.8226 478.515 14.4119 478.36 13.9213 478.36ZM23.2025 477.384C23.9065 477.384 24.4932 477.56 24.9625 477.912C25.4425 478.253 25.8265 478.707 26.1145 479.272C26.4025 479.827 26.6052 480.461 26.7225 481.176C26.8505 481.891 26.9145 482.616 26.9145 483.352C26.9145 484.088 26.8505 484.813 26.7225 485.528C26.6052 486.232 26.4025 486.867 26.1145 487.432C25.8265 487.987 25.4425 488.435 24.9625 488.776C24.4932 489.117 23.9065 489.288 23.2025 489.288C22.4878 489.288 21.8905 489.117 21.4105 488.776C20.9412 488.435 20.5625 487.987 20.2745 487.432C19.9865 486.867 19.7838 486.232 19.6665 485.528C19.5492 484.813 19.4905 484.088 19.4905 483.352C19.4905 482.616 19.5492 481.891 19.6665 481.176C19.7838 480.461 19.9865 479.827 20.2745 479.272C20.5625 478.707 20.9412 478.253 21.4105 477.912C21.8905 477.56 22.4878 477.384 23.2025 477.384ZM23.2025 478.36C22.7012 478.36 22.2852 478.515 21.9545 478.824C21.6238 479.133 21.3625 479.528 21.1705 480.008C20.9785 480.488 20.8452 481.027 20.7705 481.624C20.6958 482.211 20.6585 482.787 20.6585 483.352C20.6585 483.917 20.6958 484.493 20.7705 485.08C20.8452 485.667 20.9785 486.2 21.1705 486.68C21.3625 487.149 21.6238 487.539 21.9545 487.848C22.2852 488.147 22.7012 488.296 23.2025 488.296C23.6932 488.296 24.1038 488.147 24.4345 487.848C24.7652 487.539 25.0265 487.149 25.2185 486.68C25.4105 486.2 25.5438 485.667 25.6185 485.08C25.7038 484.493 25.7465 483.917 25.7465 483.352C25.7465 482.787 25.7038 482.211 25.6185 481.624C25.5438 481.027 25.4105 480.488 25.2185 480.008C25.0265 479.528 24.7652 479.133 24.4345 478.824C24.1038 478.515 23.6932 478.36 23.2025 478.36ZM32.4838 477.384C33.1878 477.384 33.7744 477.56 34.2438 477.912C34.7238 478.253 35.1078 478.707 35.3958 479.272C35.6838 479.827 35.8864 480.461 36.0038 481.176C36.1318 481.891 36.1958 482.616 36.1958 483.352C36.1958 484.088 36.1318 484.813 36.0038 485.528C35.8864 486.232 35.6838 486.867 35.3958 487.432C35.1078 487.987 34.7238 488.435 34.2438 488.776C33.7744 489.117 33.1878 489.288 32.4838 489.288C31.7691 489.288 31.1718 489.117 30.6918 488.776C30.2224 488.435 29.8438 487.987 29.5558 487.432C29.2678 486.867 29.0651 486.232 28.9478 485.528C28.8304 484.813 28.7718 484.088 28.7718 483.352C28.7718 482.616 28.8304 481.891 28.9478 481.176C29.0651 480.461 29.2678 479.827 29.5558 479.272C29.8438 478.707 30.2224 478.253 30.6918 477.912C31.1718 477.56 31.7691 477.384 32.4838 477.384ZM32.4838 478.36C31.9824 478.36 31.5664 478.515 31.2358 478.824C30.9051 479.133 30.6438 479.528 30.4518 480.008C30.2598 480.488 30.1264 481.027 30.0518 481.624C29.9771 482.211 29.9398 482.787 29.9398 483.352C29.9398 483.917 29.9771 484.493 30.0518 485.08C30.1264 485.667 30.2598 486.2 30.4518 486.68C30.6438 487.149 30.9051 487.539 31.2358 487.848C31.5664 488.147 31.9824 488.296 32.4838 488.296C32.9744 488.296 33.3851 488.147 33.7158 487.848C34.0464 487.539 34.3078 487.149 34.4998 486.68C34.6918 486.2 34.8251 485.667 34.8998 485.08C34.9851 484.493 35.0278 483.917 35.0278 483.352C35.0278 482.787 34.9851 482.211 34.8998 481.624C34.8251 481.027 34.6918 480.488 34.4998 480.008C34.3078 479.528 34.0464 479.133 33.7158 478.824C33.3851 478.515 32.9744 478.36 32.4838 478.36Z" fill="#808080"/>
<path d="M5.728 572H4.576V562.096L2.528 563.84L1.824 563.04L4.704 560.672H5.728V572ZM17.3453 572H10.0973V570.8L14.7373 566.112C14.9079 565.941 15.0733 565.76 15.2333 565.568C15.4039 565.365 15.5533 565.157 15.6813 564.944C15.8093 564.731 15.9106 564.507 15.9853 564.272C16.0599 564.027 16.0973 563.776 16.0973 563.52C16.0973 563.189 16.0386 562.891 15.9213 562.624C15.8039 562.357 15.6386 562.133 15.4253 561.952C15.2226 561.76 14.9826 561.616 14.7053 561.52C14.4386 561.413 14.1559 561.36 13.8573 561.36C13.2493 561.36 12.7373 561.552 12.3213 561.936C11.9053 562.309 11.6386 562.789 11.5213 563.376L10.3853 563.152C10.4599 562.757 10.5986 562.389 10.8013 562.048C11.0146 561.707 11.2706 561.413 11.5693 561.168C11.8786 560.923 12.2253 560.731 12.6093 560.592C12.9933 560.453 13.4093 560.384 13.8573 560.384C14.3159 560.384 14.7479 560.453 15.1533 560.592C15.5693 560.72 15.9319 560.917 16.2413 561.184C16.5506 561.44 16.7959 561.765 16.9773 562.16C17.1693 562.544 17.2653 562.992 17.2653 563.504C17.2653 563.867 17.2119 564.203 17.1053 564.512C17.0093 564.821 16.8759 565.115 16.7053 565.392C16.5453 565.669 16.3533 565.936 16.1293 566.192C15.9053 566.437 15.6706 566.683 15.4253 566.928L11.3453 570.976H17.3453V572ZM23.2025 560.384C23.9065 560.384 24.4932 560.56 24.9625 560.912C25.4425 561.253 25.8265 561.707 26.1145 562.272C26.4025 562.827 26.6052 563.461 26.7225 564.176C26.8505 564.891 26.9145 565.616 26.9145 566.352C26.9145 567.088 26.8505 567.813 26.7225 568.528C26.6052 569.232 26.4025 569.867 26.1145 570.432C25.8265 570.987 25.4425 571.435 24.9625 571.776C24.4932 572.117 23.9065 572.288 23.2025 572.288C22.4878 572.288 21.8905 572.117 21.4105 571.776C20.9412 571.435 20.5625 570.987 20.2745 570.432C19.9865 569.867 19.7838 569.232 19.6665 568.528C19.5492 567.813 19.4905 567.088 19.4905 566.352C19.4905 565.616 19.5492 564.891 19.6665 564.176C19.7838 563.461 19.9865 562.827 20.2745 562.272C20.5625 561.707 20.9412 561.253 21.4105 560.912C21.8905 560.56 22.4878 560.384 23.2025 560.384ZM23.2025 561.36C22.7012 561.36 22.2852 561.515 21.9545 561.824C21.6238 562.133 21.3625 562.528 21.1705 563.008C20.9785 563.488 20.8452 564.027 20.7705 564.624C20.6958 565.211 20.6585 565.787 20.6585 566.352C20.6585 566.917 20.6958 567.493 20.7705 568.08C20.8452 568.667 20.9785 569.2 21.1705 569.68C21.3625 570.149 21.6238 570.539 21.9545 570.848C22.2852 571.147 22.7012 571.296 23.2025 571.296C23.6932 571.296 24.1038 571.147 24.4345 570.848C24.7652 570.539 25.0265 570.149 25.2185 569.68C25.4105 569.2 25.5438 568.667 25.6185 568.08C25.7038 567.493 25.7465 566.917 25.7465 566.352C25.7465 565.787 25.7038 565.211 25.6185 564.624C25.5438 564.027 25.4105 563.488 25.2185 563.008C25.0265 562.528 24.7652 562.133 24.4345 561.824C24.1038 561.515 23.6932 561.36 23.2025 561.36ZM32.4838 560.384C33.1878 560.384 33.7744 560.56 34.2438 560.912C34.7238 561.253 35.1078 561.707 35.3958 562.272C35.6838 562.827 35.8864 563.461 36.0038 564.176C36.1318 564.891 36.1958 565.616 36.1958 566.352C36.1958 567.088 36.1318 567.813 36.0038 568.528C35.8864 569.232 35.6838 569.867 35.3958 570.432C35.1078 570.987 34.7238 571.435 34.2438 571.776C33.7744 572.117 33.1878 572.288 32.4838 572.288C31.7691 572.288 31.1718 572.117 30.6918 571.776C30.2224 571.435 29.8438 570.987 29.5558 570.432C29.2678 569.867 29.0651 569.232 28.9478 568.528C28.8304 567.813 28.7718 567.088 28.7718 566.352C28.7718 565.616 28.8304 564.891 28.9478 564.176C29.0651 563.461 29.2678 562.827 29.5558 562.272C29.8438 561.707 30.2224 561.253 30.6918 560.912C31.1718 560.56 31.7691 560.384 32.4838 560.384ZM32.4838 561.36C31.9824 561.36 31.5664 561.515 31.2358 561.824C30.9051 562.133 30.6438 562.528 30.4518 563.008C30.2598 563.488 30.1264 564.027 30.0518 564.624C29.9771 565.211 29.9398 565.787 29.9398 566.352C29.9398 566.917 29.9771 567.493 30.0518 568.08C30.1264 568.667 30.2598 569.2 30.4518 569.68C30.6438 570.149 30.9051 570.539 31.2358 570.848C31.5664 571.147 31.9824 571.296 32.4838 571.296C32.9744 571.296 33.3851 571.147 33.7158 570.848C34.0464 570.539 34.3078 570.149 34.4998 569.68C34.6918 569.2 34.8251 568.667 34.8998 568.08C34.9851 567.493 35.0278 566.917 35.0278 566.352C35.0278 565.787 34.9851 565.211 34.8998 564.624C34.8251 564.027 34.6918 563.488 34.4998 563.008C34.3078 562.528 34.0464 562.133 33.7158 561.824C33.3851 561.515 32.9744 561.36 32.4838 561.36Z" fill="#808080"/>
</svg>
