<svg width="160" height="160" viewBox="0 0 160 160" fill="none" xmlns="http://www.w3.org/2000/svg">
<path d="M33.3333 20H126.667C130.203 20 133.594 21.4048 136.095 23.9052C138.595 26.4057 140 29.7971 140 33.3333V126.667C140 130.203 138.595 133.594 136.095 136.095C133.594 138.595 130.203 140 126.667 140H33.3333C29.7971 140 26.4057 138.595 23.9052 136.095C21.4048 133.594 20 130.203 20 126.667V33.3333C20 29.7971 21.4048 26.4057 23.9052 23.9052C26.4057 21.4048 29.7971 20 33.3333 20ZM86.6667 86.6667V46.6667H73.3333V86.6667H86.6667ZM86.6667 113.333V100H73.3333V113.333H86.6667Z" fill="#FA3F2E"/>
</svg>
