<svg width="426" height="34" viewBox="0 0 426 34" fill="none" xmlns="http://www.w3.org/2000/svg">
<path fill-rule="evenodd" clip-rule="evenodd" d="M110.252 14.7037H189.867C191.195 14.7037 191.459 15.3709 191.459 16.7595C191.459 17.8897 191.459 18.8154 189.867 18.8154H110.252C108.66 18.8154 108.66 17.8897 108.66 16.7595C108.66 15.6294 108.66 14.7037 110.252 14.7037Z" fill="#E31B23"/>
<path d="M220.949 0.216408C223.089 0.967822 225.011 1.65311 226.718 2.27829C228.424 2.90347 230.371 3.6128 232.57 4.4063C234.769 5.2058 237.023 6.00531 239.336 6.81683L257.638 13.4714L294.153 0.168316H311.241L311.59 0.216408C309.276 1.05799 307.239 1.80339 305.473 2.44059C303.706 3.0838 301.964 3.721 300.227 4.3582C298.491 5.00141 296.67 5.66266 294.765 6.34795C292.855 7.03324 290.614 7.83876 288.042 8.75849C285.47 9.67822 282.43 10.7723 278.933 12.0347C275.436 13.297 271.254 14.8059 266.399 16.5552C271.314 18.3345 275.532 19.8734 279.059 21.1719C282.586 22.4703 285.65 23.5944 288.252 24.5442C290.854 25.494 293.119 26.3296 295.06 27.0509C296.995 27.7663 298.803 28.4335 300.48 29.0407C302.156 29.6478 303.863 30.267 305.599 30.8922C307.33 31.5173 309.3 32.2206 311.494 33.0021H294.411C291.112 31.8179 288.24 30.7839 285.783 29.9123C283.325 29.0407 280.825 28.133 278.284 27.1952C275.736 26.2574 272.876 25.2115 269.697 24.0573C266.519 22.9031 262.559 21.4664 257.818 19.7472C257.47 19.8734 256.316 20.2882 254.351 20.9855C252.387 21.6888 250.043 22.5304 247.327 23.5163C244.611 24.5021 241.715 25.5481 238.657 26.6542C235.592 27.7663 232.756 28.7882 230.161 29.7199C227.559 30.6577 224.525 31.7518 221.052 32.9961H203.963C209.629 30.9342 214.208 29.2631 217.711 27.9827C221.208 26.7023 223.984 25.6984 226.039 24.959C228.094 24.2256 229.578 23.6846 230.503 23.3419C231.428 22.9993 232.15 22.7348 232.672 22.5424C233.195 22.3561 233.67 22.1818 234.102 22.0255C234.535 21.8692 235.256 21.6047 236.271 21.232C237.281 20.8593 238.771 20.3122 240.736 19.5909C242.701 18.8755 245.477 17.8596 249.064 16.5431C244.209 14.7938 240.027 13.285 236.53 12.0226C233.033 10.7603 229.992 9.6662 227.421 8.74647C224.849 7.82674 222.608 7.02122 220.703 6.33593C218.792 5.65064 216.972 4.98338 215.241 4.34618C213.505 3.70898 211.756 3.06577 209.996 2.42857C208.229 1.79137 206.192 1.04597 203.879 0.204387H220.967L220.949 0.216408Z" fill="#807F83"/>
<path d="M0.00600863 0.114216L16.1692 0.0961833V24.5983C16.2113 26.023 16.3375 27.1952 16.8302 27.8745C17.3169 28.5477 18.0079 28.8723 19.0233 28.9204C23.8843 29.1549 82.5165 29.215 84.4934 29.0527C88.0625 28.7581 88.8436 26.3055 88.9999 26.7504C88.9999 26.7504 89.1561 9.79844 88.9999 0.168316C88.9999 0.168316 97.8746 0 105.752 0C105.752 0 105.77 4.79703 105.752 6.35997C105.734 7.92292 105.752 11.163 105.752 17.1503C105.752 18.4728 105.752 22.4583 105.752 26.582C105.752 30.1047 105.439 33.0262 100.855 33.0262C100.855 33.0262 11.5907 33.0382 9.38548 33.0382C6.8919 33.0141 5.65412 33.0382 3.40689 32.425C1.58628 31.7277 0.444639 30.8921 0.300432 29.4795C0.114164 27.622 0.114164 20.18 0.114164 18.9657L0 0.108204L0.00600863 0.114216Z" fill="#807F83"/>
<path d="M319.299 4.05163V0.174329L426 0.192362L425.82 4.05764H380.839V33.988L364.472 34V4.05764H319.305L319.299 4.05163Z" fill="#807F83"/>
<path fill-rule="evenodd" clip-rule="evenodd" d="M111.22 4.27362C107.525 4.27362 107.525 2.42815 107.525 0.167894H196.188C196.188 2.42815 196.188 4.27362 192.493 4.27362" fill="#807F83"/>
<path fill-rule="evenodd" clip-rule="evenodd" d="M192.486 28.9083H111.213C107.518 28.9083 107.518 30.7598 107.518 33.0141H196.182C196.182 30.7538 196.182 28.9083 192.486 28.9083Z" fill="#807F83"/>
</svg>
