<?xml version="1.0" encoding="utf-8"?>
<!-- Generator: Adobe Illustrator 16.0.0, SVG Export Plug-In . SVG Version: 6.00 Build 0)  -->
<!DOCTYPE svg PUBLIC "-//W3C//DTD SVG 1.1//EN" "http://www.w3.org/Graphics/SVG/1.1/DTD/svg11.dtd">
<svg version="1.1" id="圖層_1" xmlns="http://www.w3.org/2000/svg" xmlns:xlink="http://www.w3.org/1999/xlink" x="0px" y="0px"
	 width="600px" height="46.154px" viewBox="0 0 600 46.154" enable-background="new 0 0 600 46.154" xml:space="preserve">
<g>
	<path fill-rule="evenodd" clip-rule="evenodd" fill="#646569" d="M461.549,0h126.924c11.54,0,11.54,5.193,11.54,11.539v23.079
		c0,6.345,0,11.537-11.54,11.537H461.549c-11.539,0-11.539-5.192-11.539-11.537V11.539C450.01,5.193,450.01,0,461.549,0L461.549,0z
		 M571.164,5.77h-92.309c-5.771,0-5.771,2.597-5.771,5.769v23.079c0,3.171,0,5.766,5.771,5.766h92.309c5.77,0,5.77-2.595,5.77-5.766
		V11.539C576.934,8.367,576.934,5.77,571.164,5.77z"/>
	<path fill-rule="evenodd" clip-rule="evenodd" fill="#646569" d="M432.219,5.769H294.718c-6.25,0-6.25-2.596-6.25-5.769H438.47
		C438.47,3.173,438.47,5.769,432.219,5.769z"/>
	<path fill-rule="evenodd" clip-rule="evenodd" fill="#D13239" d="M296.899,20.192h133.14c2.222,0,2.662,0.937,2.662,2.886
		c0,1.587,0,2.884-2.662,2.884h-133.14c-2.662,0-2.662-1.297-2.662-2.884l0,0C294.237,21.491,294.237,20.192,296.899,20.192z"/>
	<path fill-rule="evenodd" clip-rule="evenodd" fill="#646569" d="M150.003,34.617c0,6.344,0,11.537-11.539,11.537H11.54
		C0,46.154,0,40.962,0,34.617V0h23.077v34.617c0,3.171,0,5.766,5.77,5.766h92.308c5.77,0,5.77-2.595,5.77-5.766V11.539
		c0-6.346,0-11.539,11.539-11.539h5.77c5.173,0,7.896,0.827,11.552,2.248l92.304,35.897c5.751,2.234,5.763-1.024,5.763-3.528v-17.31
		h0.063V0h23.013v34.617c0,6.344,0,11.537-11.537,11.537h-5.771c-5.769,0-7.899-0.827-11.579-2.259L155.799,8.022
		c-6.055-2.354-5.796,1.257-5.796,3.516V34.617z"/>
	<path fill-rule="evenodd" clip-rule="evenodd" fill="#646569" d="M432.219,40.383H294.718c-6.25,0-6.25,2.599-6.25,5.771H438.47
		C438.47,42.981,438.47,40.383,432.219,40.383z"/>
</g>
</svg>
